<svg xmlns="http://www.w3.org/2000/svg" width="205.272" height="40.872" viewBox="0 0 205.272 40.872">
  <g id="_01_EXP_Tremegisto_Lang_Farbe" data-name="01_EXP_Tremegisto_Lang_Farbe" transform="translate(1397.248 -318.88)">
    <g id="Group_14044" data-name="Group 14044" transform="translate(-1351.384 326.884)">
      <path id="Path_12216" data-name="Path 12216" d="M-1216.206,347.9H-1234.4v2.619h7.492v20.588h2.9V350.519h7.8Z" transform="translate(1234.4 -347.731)" fill="#24305d"/>
      <path id="Path_12217" data-name="Path 12217" d="M-1164.972,371.481a3.515,3.515,0,0,1,1.943.62l1.126-2.647a13.087,13.087,0,0,0-2.169-.254,5.226,5.226,0,0,0-4.816,2.985l-.254.479V369.51h-2.76v16.87h2.76v-9.688A5.723,5.723,0,0,1-1167.9,373,3.672,3.672,0,0,1-1164.972,371.481Z" transform="translate(1189.502 -363.032)" fill="#24305d"/>
      <path id="Path_12218" data-name="Path 12218" d="M-1118.025,371.228a7.7,7.7,0,0,0-5.661-2.028,7.456,7.456,0,0,0-5.379,2.253,9.047,9.047,0,0,0-2.535,6.7,8.506,8.506,0,0,0,2.478,6.393,7.482,7.482,0,0,0,5.408,2.169,11.51,11.51,0,0,0,4.027-.676,5.642,5.642,0,0,0,2.028-1.1l-1.155-1.943a6.577,6.577,0,0,1-4.309,1.436,5.411,5.411,0,0,1-3.859-1.436,6.353,6.353,0,0,1-1.69-4.732v-.141h12.392a6.686,6.686,0,0,0,.2-1.718A6.817,6.817,0,0,0-1118.025,371.228Zm-.76,4.957h-9.8l.028-.141a5.076,5.076,0,0,1,1.521-3.211,4.867,4.867,0,0,1,3.521-1.352,4.729,4.729,0,0,1,3.549,1.38,4.5,4.5,0,0,1,1.183,3.183Z" transform="translate(1160.552 -363.032)" fill="#24305d"/>
      <path id="Path_12219" data-name="Path 12219" d="M-1049.846,372.185a3.606,3.606,0,0,1,2.141-.7c2.422,0,3.661,1.408,3.661,4.2v10.73h2.76v-11.35a6.228,6.228,0,0,0-1.408-4.337,5.2,5.2,0,0,0-4.027-1.521,6.638,6.638,0,0,0-2.816.648,3.7,3.7,0,0,0-1.831,1.577l-.113.225-.141-.2c-.958-1.465-2.647-2.225-5.041-2.225a5.183,5.183,0,0,0-4.281,2.253l-.141.169-1.07-2.112h-1.746v16.87h2.76V373.847l.028-.028a4.533,4.533,0,0,1,1.521-1.605,3.655,3.655,0,0,1,2.028-.732,4.25,4.25,0,0,1,2.619.76,2.492,2.492,0,0,1,1.014,2.112v12.054h2.76V373.791A3.336,3.336,0,0,1-1049.846,372.185Z" transform="translate(1111.92 -363.032)" fill="#24305d"/>
      <path id="Path_12220" data-name="Path 12220" d="M-957.725,371.228a7.7,7.7,0,0,0-5.661-2.028,7.456,7.456,0,0,0-5.379,2.253,9.047,9.047,0,0,0-2.535,6.7,8.506,8.506,0,0,0,2.478,6.393,7.482,7.482,0,0,0,5.408,2.169,11.51,11.51,0,0,0,4.027-.676,5.642,5.642,0,0,0,2.028-1.1L-958.514,383a6.576,6.576,0,0,1-4.309,1.436A5.411,5.411,0,0,1-966.681,383a6.353,6.353,0,0,1-1.69-4.732v-.141h12.392a6.686,6.686,0,0,0,.2-1.718A6.817,6.817,0,0,0-957.725,371.228Zm-.76,4.957h-9.8l.028-.141a5.075,5.075,0,0,1,1.521-3.211,4.867,4.867,0,0,1,3.521-1.352,4.729,4.729,0,0,1,3.549,1.38,4.5,4.5,0,0,1,1.183,3.183Z" transform="translate(1045.399 -363.032)" fill="#24305d"/>
      <path id="Path_12221" data-name="Path 12221" d="M-893,386.261a3.962,3.962,0,0,0-1.38-3.239,5.747,5.747,0,0,0-3.858-1.183,13.857,13.857,0,0,0-2.14.253,14.51,14.51,0,0,1-2.169.253c-.422,0-1.718,0-1.718-.789,0-.394.282-.676.845-.9a6.931,6.931,0,0,1,1.239-.366l2.507-.253a6.283,6.283,0,0,0,4.168-1.972,6.16,6.16,0,0,0,1.577-4.253,6.194,6.194,0,0,0-1.155-3.887l-.084-.113,1.8-1.352-1.746-1.662-1.521,1.8-.113-.084a6.506,6.506,0,0,0-3.887-1.014,6.339,6.339,0,0,0-4.534,1.746A5.865,5.865,0,0,0-907,373.644a5.87,5.87,0,0,0,3.549,5.774l.366.169-.394.084a5.35,5.35,0,0,0-2.056.958,1.836,1.836,0,0,0-.817,1.436c0,1.746,1.155,2.619,3.521,2.619a12.3,12.3,0,0,0,2.084-.253,11.981,11.981,0,0,1,1.887-.253c2.084,0,3.154.76,3.154,2.225a2.189,2.189,0,0,1-1.267,1.887,6.605,6.605,0,0,1-3.323.732,9.21,9.21,0,0,1-4.872-1.718l-1.493,2.2a11.418,11.418,0,0,0,2.816,1.352,11.187,11.187,0,0,0,3.464.591,9.106,9.106,0,0,0,5.295-1.436A4.448,4.448,0,0,0-893,386.261Zm-10.111-9.576a4.636,4.636,0,0,1-1.014-3.07,4.01,4.01,0,0,1,1.042-2.816,3.462,3.462,0,0,1,2.7-1.183,3.258,3.258,0,0,1,2.563,1.183,4.119,4.119,0,0,1,1.014,2.816,4.736,4.736,0,0,1-.958,3.1,3.215,3.215,0,0,1-2.647,1.211A3.382,3.382,0,0,1-903.113,376.686Z" transform="translate(999.209 -361.308)" fill="#24305d"/>
      <path id="Path_12222" data-name="Path 12222" d="M-843.2,387.2V370.3h-5.1v2.281h2.338V387.2Z" transform="translate(957.041 -363.822)" fill="#24305d"/>
      <path id="Path_12223" data-name="Path 12223" d="M-806.334,385.594a4.286,4.286,0,0,0,1.577-3.492,4.68,4.68,0,0,0-.873-2.845,7.379,7.379,0,0,0-2.873-2.028l-2.169-.986a2.853,2.853,0,0,1-1.971-2.619,1.675,1.675,0,0,1,.817-1.408,3.2,3.2,0,0,1,1.915-.535,5.918,5.918,0,0,1,3.577,1.352l.76-2.507a12.4,12.4,0,0,0-4.563-1.127,6.423,6.423,0,0,0-3.943,1.155,3.814,3.814,0,0,0-1.493,3.183,4.372,4.372,0,0,0,.254,1.493,3.912,3.912,0,0,0,.789,1.3,5.172,5.172,0,0,0,1.239,1.1,18.488,18.488,0,0,0,2.816,1.436c1.859.845,2.817,1.859,2.817,3.042,0,1.662-.986,2.507-2.957,2.507A8.02,8.02,0,0,1-814.642,383l-.958,2.619a10.037,10.037,0,0,0,4.929,1.267A7.03,7.03,0,0,0-806.334,385.594Z" transform="translate(933.551 -363.176)" fill="#24305d"/>
      <path id="Path_12224" data-name="Path 12224" d="M-764.648,374.119a4.342,4.342,0,0,0,3.323,1.465,16.255,16.255,0,0,0,4-.451l-.394-2.366a5.967,5.967,0,0,1-2.31.535,3,3,0,0,1-2.45-.958,5.083,5.083,0,0,1-.76-3.154v-8.674h4.7V358.4h-4.7v-4.7l-2.76,1.07V358.4h-2v2.112h2V370.4A5.3,5.3,0,0,0-764.648,374.119Z" transform="translate(899.357 -351.898)" fill="#24305d"/>
      <path id="Path_12225" data-name="Path 12225" d="M-714.968,369.2a7.019,7.019,0,0,0-5.52,2.394,9.261,9.261,0,0,0-2.112,6.337,9.59,9.59,0,0,0,2.028,6.421,6.937,6.937,0,0,0,5.6,2.366,7.065,7.065,0,0,0,5.576-2.338,9.628,9.628,0,0,0,2.056-6.45,9.527,9.527,0,0,0-2-6.421A7.009,7.009,0,0,0-714.968,369.2Zm3.464,13.519a4.057,4.057,0,0,1-3.464,1.8c-3.126,0-4.7-2.225-4.7-6.59a7.954,7.954,0,0,1,1.267-4.76,4.06,4.06,0,0,1,3.436-1.746c3.126,0,4.7,2.2,4.7,6.506A8.254,8.254,0,0,1-711.5,382.719Z" transform="translate(866.743 -363.032)" fill="#24305d"/>
      <path id="Path_12226" data-name="Path 12226" d="M-838.954,347.3a1.7,1.7,0,0,0-1.239.507,1.656,1.656,0,0,0-.507,1.239,1.7,1.7,0,0,0,.507,1.239,1.638,1.638,0,0,0,1.211.507,1.7,1.7,0,0,0,1.239-.507,1.7,1.7,0,0,0,.507-1.239,1.638,1.638,0,0,0-.507-1.211A1.565,1.565,0,0,0-838.954,347.3Z" transform="translate(951.581 -347.3)" fill="#69b42f"/>
    </g>
    <g id="Group_14045" data-name="Group 14045" transform="translate(-1397.248 318.88)">
      <path id="Path_12227" data-name="Path 12227" d="M-1391.761,352.067c-.7,4.534.056,8.308,2.338,12.758a4.381,4.381,0,0,1-.648-.591,19.558,19.558,0,0,1-3.971-6.675,17.6,17.6,0,0,1-1.07-6.252,19.134,19.134,0,0,1,6.816-14.589,16.417,16.417,0,0,1,7.21-3.718c-1.07.873-2.2,1.718-3.239,2.676a27.4,27.4,0,0,0-2.9,3.1,25.384,25.384,0,0,0-2.366,3.577,25.1,25.1,0,0,0-1.718,3.887,26.646,26.646,0,0,0-1.07,4.168c-.281,1.38-.394,2.816-.591,4.225A9.773,9.773,0,0,1-1391.761,352.067Z" transform="translate(1395.718 -329.023)" fill="#24305d"/>
      <path id="Path_12228" data-name="Path 12228" d="M-1275.5,349.083a7.4,7.4,0,0,1,2.2,2.422c-.31-.958-.563-1.943-.929-2.873s-.9-1.774-1.38-2.732a18.831,18.831,0,0,1,3.915,18.954c-.169-1.267-.591-3.633-.62-3.633a18.445,18.445,0,0,1-1.126,4.281,13.257,13.257,0,0,1-2.281,3.774,14.864,14.864,0,0,0,1.549-5.6,10.619,10.619,0,0,1-.873,1.07c.085-.676.2-2.084.169-2.084a9.546,9.546,0,0,1-2.817,3.014A19.14,19.14,0,0,0-1275.5,349.083Z" transform="translate(1311.369 -338.29)" fill="#24305d"/>
      <path id="Path_12229" data-name="Path 12229" d="M-1332.842,374.768a3.435,3.435,0,0,1-.282.394,6.87,6.87,0,0,0-1.239,2.535c-.2.817.31,1.352,1.1,1.155a6.235,6.235,0,0,0,2.45-1.3,21.483,21.483,0,0,0,4.7-5.6,42.874,42.874,0,0,0,3.323-6.985,52.309,52.309,0,0,0,2.281-7.492c.169-.76.563-2.676.591-2.676-.056.591-.113,1.155-.2,1.746-.281,1.8-.45,3.633-.873,5.407a41.565,41.565,0,0,1-2.844,8.59,46.042,46.042,0,0,1-2.394,4.112,18.183,18.183,0,0,1-3.83,4.591,16.528,16.528,0,0,1-3.521,2.394,4.357,4.357,0,0,1-2.168.451,1.5,1.5,0,0,1-1.267-1.69,4.2,4.2,0,0,1,.76-2.056A23.98,23.98,0,0,1-1332.842,374.768Z" transform="translate(1353.979 -344.683)" fill="#24305d"/>
      <path id="Path_12230" data-name="Path 12230" d="M-1337.3,319.618a20.081,20.081,0,0,1,6.844-.648,15.873,15.873,0,0,1,7.914,2.985,12.766,12.766,0,0,0-4.309-.873,2.374,2.374,0,0,1,.225,3.154A10.367,10.367,0,0,0-1337.3,319.618Z" transform="translate(1354.184 -318.88)" fill="#24305d"/>
      <path id="Path_12231" data-name="Path 12231" d="M-1304.5,445.179a18.674,18.674,0,0,0,5.83-5.858c-.056.225-.084.451-.141.676a6.381,6.381,0,0,1-.225.676c-.085.225-.2.422-.338.732a17.135,17.135,0,0,0,4.929-3.605C-1296.7,441.771-1300.388,443.771-1304.5,445.179Z" transform="translate(1330.621 -404.307)" fill="#24305d"/>
      <path id="Path_12232" data-name="Path 12232" d="M-1317.511,449.711a7.233,7.233,0,0,1-2.2,1.155,8.586,8.586,0,0,1-3.492.422,22.436,22.436,0,0,0,8.759-4.788A14.581,14.581,0,0,1-1317.511,449.711Z" transform="translate(1344.055 -410.557)" fill="#24305d"/>
      <path id="Path_12233" data-name="Path 12233" d="M-1376.9,358.518s.507-1.324.76-1.971c.676-1.605,1.211-3.1,2.028-4.816a16.857,16.857,0,0,1,2.675-4.478,4.823,4.823,0,0,1,1.549-1.3,2.173,2.173,0,0,1,2.225,0,11.659,11.659,0,0,1,2.732,2.535,20.5,20.5,0,0,0,1.887,1.943,2.993,2.993,0,0,0,4.168.056,11.016,11.016,0,0,0,2.985-3.8c.873-1.662,3.013-5.689,3.013-5.689s-.535,1.3-.817,1.915c-.873,1.915-1.633,3.858-2.563,5.717a30.9,30.9,0,0,1-2.422,4.281,6.673,6.673,0,0,1-2.056,2.056,3.188,3.188,0,0,1-3.521-.056,25.235,25.235,0,0,1-2.112-2.14,10.056,10.056,0,0,0-2.141-1.943,2.706,2.706,0,0,0-3.21.2,9.568,9.568,0,0,0-2.732,3.351C-1375.182,355.645-1376.9,358.518-1376.9,358.518Z" transform="translate(1382.631 -334.77)" fill="#24305d"/>
      <path id="Path_12234" data-name="Path 12234" d="M-1386.673,334.6a29.692,29.692,0,0,0-3.183,2.056,25.063,25.063,0,0,0-3.267,3.211,22.478,22.478,0,0,0-4.112,7.773s-.422-3.661,3.464-8.731A11.256,11.256,0,0,1-1386.673,334.6Z" transform="translate(1397.248 -330.172)" fill="#24305d"/>
    </g>
  </g>
</svg>
