<svg xmlns="http://www.w3.org/2000/svg" width="389" height="274.879" viewBox="0 0 389 274.879">
  <path id="Subtraction_1" data-name="Subtraction 1" d="M16939.438,298.878v0H16924c3.123-4.49,6.17-9.163,9.313-14.288a283.757,283.757,0,0,0,17.395-32.669c5.23-11.387,9.965-23.08,14.367-34.081a497.791,497.791,0,0,0,21.8-71.591c.525-2.364,1.271-5.869,2.063-9.581l.035-.158.053-.248c1.557-7.3,3.322-15.583,3.5-15.583-.529,5.574-1.074,11.044-1.883,16.685-.822,5.262-1.555,10.64-2.264,15.84l-.018.141c-1.605,11.782-3.266,23.965-6.059,35.7-3.961,16.633-7.576,29.932-11.375,41.853a301.008,301.008,0,0,1-15.812,40.235c-4.973,10.144-10.713,19.719-15.674,27.749Zm-235.26,0h-20.393c-.234-.647-.486-1.359-.773-2.178a195.157,195.157,0,0,1-7.842-29.472,149.9,149.9,0,0,1-2.389-30.279,207.85,207.85,0,0,1,4.8-40.254,180.4,180.4,0,0,1,12.424-36.721,177.734,177.734,0,0,1,20.094-33.088,200.08,200.08,0,0,1,27.813-29.354,172.655,172.655,0,0,1,34.049-23.011,150.177,150.177,0,0,1,17.578-7.646,124.657,124.657,0,0,1,17.275-4.87c-3,2.452-6.176,4.976-8.975,7.2-7.318,5.828-14.887,11.854-21.977,18.366a261.346,261.346,0,0,0-27.723,29.605,242.184,242.184,0,0,0-22.607,34.181c-3.25,5.953-6.283,12.1-9.018,18.27-2.795,6.311-5.285,12.661-7.4,18.874a253.3,253.3,0,0,0-10.227,39.833c-1.795,8.79-2.887,17.951-3.941,26.81-.5,4.212-1.068,8.985-1.711,13.553a.733.733,0,0,1,.023-.075c.412-1.3,1.553-4.785,3.242-8.936,1.873-4.6,4.834-11.025,8.313-15.474a180.55,180.55,0,0,0-.635,54.661Zm318.189,0h-6.314a124.982,124.982,0,0,0,4.459-15.736,86.3,86.3,0,0,0,1.885-16.584,102.73,102.73,0,0,1-8.34,10.227c.781-6.228,1.871-19.627,1.619-19.914a.008.008,0,0,0-.008,0,154.241,154.241,0,0,1-11.641,15.61,68,68,0,0,1-15.275,13.189c3.883-6.225,7.445-12.58,10.586-18.888a202.382,202.382,0,0,0,8.328-19.128,185.813,185.813,0,0,0,6.064-19.381,174.112,174.112,0,0,0,5.295-39.569,179.509,179.509,0,0,0-.787-20.213,192.857,192.857,0,0,0-3.088-20.515,214.913,214.913,0,0,0-5.4-20.83c9.039,5.166,15.605,15.043,20.4,22.255.139.211.277.417.412.621l.178.267c-.988-3.057-1.928-6.175-2.834-9.19-1.824-6.061-3.711-12.329-6.047-18.262a151.558,151.558,0,0,0-8.227-16.715l-.023-.041c-1.637-3.012-3.33-6.127-4.941-9.35a176.724,176.724,0,0,1,43.639,84.814,181.82,181.82,0,0,1,3.334,47.92,188.184,188.184,0,0,1-9.562,48.4c-1.609-12.113-5.654-34.721-5.918-34.721-2.471,16.074-5.992,29.456-10.764,40.909a144.311,144.311,0,0,1-7.031,14.828Zm-300.6-47.943h0l.049-.128c1.162-3.033,5.117-13.346,7.213-18.7,2.18-5.181,4.291-10.442,6.152-15.083,3.941-9.825,8.018-19.985,13.227-30.942.617-1.3,1.227-2.585,1.766-3.721,6.91-14.611,12.369-26.152,23.8-39.074a62.982,62.982,0,0,1,6.895-7.1,44.316,44.316,0,0,1,7.908-5.281,20.763,20.763,0,0,1,21.26,0,61.572,61.572,0,0,1,12.123,9.208c3.688,3.5,7.158,7.393,10.516,11.154,1.07,1.2,2.281,2.555,3.469,3.861a197.527,197.527,0,0,0,18.035,18.572c6.348,5.536,13.064,8.343,19.965,8.343,6.674,0,13.359-2.627,19.867-7.807a93.87,93.87,0,0,0,15.779-15.946,135.574,135.574,0,0,0,12.75-20.387c4.8-9.135,14.494-27.438,28.033-52.931.471-.886.738-1.392.762-1.434l-.1.248c-1.578,3.807-5.488,13.186-7.7,18.053-3.174,6.966-6.2,13.984-9.127,20.771l-.01.026c-4.83,11.2-9.826,22.784-15.352,33.838-.887,1.742-1.789,3.525-2.566,5.059-6.539,12.919-12.715,25.122-20.582,35.85a87.8,87.8,0,0,1-10.229,12.347,60.1,60.1,0,0,1-9.42,7.3,35.555,35.555,0,0,1-17.641,4.87,27.15,27.15,0,0,1-8.191-1.215,23.723,23.723,0,0,1-7.812-4.2,144.166,144.166,0,0,1-14.477-14.338l-.016-.019c-1.746-1.9-3.727-4.057-5.687-6.1l-1.113-1.213c-5.779-6.294-11.756-12.8-19.346-17.359a26.981,26.981,0,0,0-13.914-4.175,24.661,24.661,0,0,0-8.51,1.563,34.645,34.645,0,0,0-8.258,4.5,72.912,72.912,0,0,0-14.871,14.5,123.917,123.917,0,0,0-11.234,17.531c-6.342,10.976-20.551,34.768-23.336,39.425Zm-54.643-60.013a43.37,43.37,0,0,1-.049-6.219,92.9,92.9,0,0,1,2.676-17.327,136.8,136.8,0,0,1,9.639-26.41,191.934,191.934,0,0,1,20.84-33.473,115.458,115.458,0,0,1,22.977-22.216,110.939,110.939,0,0,1,21.939-12.4,101.256,101.256,0,0,1,16.438-5.387,57.16,57.16,0,0,1,6.473-1.174c-.2.113-21.066,11.9-30.416,19.644s-23.117,20.426-31.219,30.686a240.088,240.088,0,0,0-19.084,27.957,229.559,229.559,0,0,0-12.07,23.718,155.757,155.757,0,0,0-8.139,22.6Zm263.225-115.727h0a128.673,128.673,0,0,0-17.287-19.855,99.924,99.924,0,0,0-19.633-14.26,91.333,91.333,0,0,0-21.994-8.6,101.328,101.328,0,0,0-24.369-2.881,126.04,126.04,0,0,0-18.723,1.456,230.881,230.881,0,0,1,24.793-4.938A192.645,192.645,0,0,1,16879.965,24a99.934,99.934,0,0,1,13.783.863c8.217,1.195,14.715,2.335,20.445,3.587a146.558,146.558,0,0,1,18.176,5.127,131.1,131.1,0,0,1,17.771,7.9,190.96,190.96,0,0,1,19.232,11.913c-1.639-.5-3.27-1.014-5.078-1.584-5.309-1.67-10.8-3.4-16.375-4.674a77.579,77.579,0,0,0-17.418-2.127c-.766,0-1.541.014-2.3.041a34.5,34.5,0,0,1,4.762,7.285,21.86,21.86,0,0,1,2.066,7.385,20.2,20.2,0,0,1-.814,7.586,29.181,29.181,0,0,1-3.861,7.889Z" transform="translate(-16667 -24)" fill="rgba(255,255,255,0.27)"/>
</svg>
