<svg xmlns="http://www.w3.org/2000/svg" width="298.711" height="48.029" viewBox="0 0 298.711 48.029">
  <g id="Group_15" data-name="Group 15" transform="translate(-63.827 -44.288)">
    <path id="Path_1" data-name="Path 1" d="M175.934,317.329a9.63,9.63,0,0,0,9.052-6.129v5.642h1.3V287.211h-1.3v14.734a9.54,9.54,0,0,0-9.052-6.048c-5.521,0-10.107,4.465-10.107,10.675v.081c0,6.251,4.586,10.675,10.107,10.675Zm.122-1.258c-5.074,0-8.849-4.059-8.849-9.458v-.081c0-5.48,3.694-9.376,8.849-9.376a9.163,9.163,0,0,1,9.012,9.417v.081A9.137,9.137,0,0,1,176.056,316.071Z" transform="translate(-102 -225.012)" fill="#fff" fill-rule="evenodd"/>
    <path id="Path_2" data-name="Path 2" d="M222.29,323.481a10.244,10.244,0,0,0,8.362-4.222l-.974-.771a9.28,9.28,0,0,1-7.347,3.775c-4.586,0-8.524-3.451-8.767-9.012H231.3v-.447c0-5.48-3.207-10.756-9.377-10.756-5.642,0-9.783,4.627-9.783,10.634v.081c0,6.535,4.627,10.716,10.148,10.716Zm-8.727-11.406c.244-5.034,3.653-8.808,8.28-8.808,5.115,0,7.834,4.343,8.037,8.808Z" transform="translate(-121.2 -231.164)" fill="#fff" fill-rule="evenodd"/>
    <rect id="Rectangle_1" data-name="Rectangle 1" width="1.34" height="20.458" transform="translate(117.123 71.372)" fill="#fff"/>
    <path id="Path_3" data-name="Path 3" d="M276.318,322.786H277.6V311.373c0-4.622,3.376-8.118,7.636-8.118,4.7,0,7.234,3.175,7.234,7.877v11.655h1.286V310.93c0-5.264-3.014-8.881-8.359-8.881a8.22,8.22,0,0,0-7.8,5.3v-4.823h-1.286Z" transform="translate(-147.805 -231.164)" fill="#fff" fill-rule="evenodd"/>
    <path id="Path_4" data-name="Path 4" d="M435.835,312.086v-.08c0-6.033-3.256-11.551-10.361-11.551-6.192,0-10.519,5-10.519,11.075v.08c0,6.51,4.723,11,11.115,11a10.642,10.642,0,0,0,8.693-3.97l-3.454-3.057a6.971,6.971,0,0,1-5.161,2.184,4.934,4.934,0,0,1-5.2-4.168h14.806c.04-.556.08-.914.08-1.509Zm-5.875-2.263h-9.091c.477-2.739,2.1-4.525,4.6-4.525C428.014,305.3,429.6,307.124,429.96,309.823Z" transform="translate(-205.279 -230.503)" fill="#fff" fill-rule="evenodd"/>
    <path id="Path_5" data-name="Path 5" d="M472.7,315.715v-.08c0-3.89-3.453-5.319-6.43-6.312-2.3-.793-4.326-1.349-4.326-2.54v-.08c0-.833.754-1.468,2.223-1.468a12.608,12.608,0,0,1,5.756,1.985l2.3-4.168a14.717,14.717,0,0,0-7.938-2.461c-4.287,0-7.78,2.421-7.78,6.748v.079c0,4.128,3.374,5.518,6.351,6.391,2.342.715,4.407,1.152,4.407,2.461v.08c0,.952-.794,1.588-2.541,1.588a12.028,12.028,0,0,1-6.708-2.541l-2.581,3.97a14.905,14.905,0,0,0,9.13,3.215C469.167,322.582,472.7,320.438,472.7,315.715Z" transform="translate(-222.06 -230.559)" fill="#fff" fill-rule="evenodd"/>
    <path id="Path_6" data-name="Path 6" d="M502.491,317.685v-4.843a6.134,6.134,0,0,1-2.977.755c-1.349,0-1.945-.676-1.945-2.064v-9.09h5v-5.161h-5v-5.438h-6.034v5.438h-2.541v5.161h2.541v10.082c0,4.922,2.5,6.391,6.192,6.391A8.9,8.9,0,0,0,502.491,317.685Z" transform="translate(-235.974 -226.933)" fill="#fff" fill-rule="evenodd"/>
    <path id="Path_7" data-name="Path 7" d="M540.021,311.53v-.079c0-6.113-4.883-11-11.472-11-6.63,0-11.551,4.962-11.551,11.075v.08c0,6.113,4.882,11,11.472,11,6.628,0,11.551-4.962,11.551-11.075Zm-5.954.08c0,3.136-2.064,5.8-5.518,5.8a5.653,5.653,0,0,1-5.6-5.875v-.079c0-3.136,2.064-5.8,5.518-5.8a5.653,5.653,0,0,1,5.6,5.875Z" transform="translate(-247.583 -230.503)" fill="#fff" fill-rule="evenodd"/>
    <path id="Path_8" data-name="Path 8" d="M576.6,306.76v-6.312c-3.573-.159-5.558,1.747-6.788,4.685v-4.288h-6.034v21.276h6.034v-7.859c0-5.08,2.46-7.5,6.47-7.5Z" transform="translate(-266.978 -230.496)" fill="#fff" fill-rule="evenodd"/>
    <path id="Path_9" data-name="Path 9" d="M622.061,318.715l-3.532-3.572a6.742,6.742,0,0,1-4.883,2.262c-3.295,0-5.4-2.619-5.4-5.875v-.079c0-3.136,2.143-5.8,5.161-5.8A6.213,6.213,0,0,1,618.251,308l3.692-3.97a10.459,10.459,0,0,0-8.495-3.573,10.923,10.923,0,0,0-11.154,11.075v.08a10.864,10.864,0,0,0,11.075,11A10.714,10.714,0,0,0,622.061,318.715Z" transform="translate(-282.943 -230.503)" fill="#fff" fill-rule="evenodd"/>
    <path id="Path_10" data-name="Path 10" d="M662.261,316.956V303.183c0-4.882-2.66-7.9-7.225-7.9-3.056,0-4.842,1.627-6.231,3.414V287.98h-6.034v28.976h6.034V305.088c0-2.858,1.468-4.326,3.771-4.326s3.651,1.468,3.651,4.326v11.868Z" transform="translate(-299.724 -225.331)" fill="#fff" fill-rule="evenodd"/>
    <path id="Path_11" data-name="Path 11" d="M356.676,322.129V308.355c0-4.882-2.66-7.9-7.224-7.9-3.057,0-4.843,1.627-6.232,3.413v-3.017h-6.034v21.277h6.034V310.26c0-2.858,1.469-4.327,3.771-4.327s3.652,1.469,3.652,4.327v11.869Z" transform="translate(-173.039 -230.503)" fill="#fff" fill-rule="evenodd"/>
    <rect id="Rectangle_2" data-name="Rectangle 2" width="6.033" height="21.276" transform="translate(152.437 70.349)" fill="#fff"/>
    <path id="Path_12" data-name="Path 12" d="M388.669,304.114l16.237-47.5L385.97,296.929l-4.763-14.25h-6.391l8.376,21.435Z" transform="translate(-188.639 -212.33)" fill="#fff" fill-rule="evenodd"/>
    <circle id="Ellipse_1" data-name="Ellipse 1" cx="3.175" cy="3.175" r="3.175" transform="translate(152.279 62.298)" fill="#fff"/>
    <path id="Path_13" data-name="Path 13" d="M257.389,291.315a.873.873,0,1,1-.872.872A.872.872,0,0,1,257.389,291.315Z" transform="translate(-139.597 -226.714)" fill="#fff" fill-rule="evenodd"/>
    <circle id="Ellipse_2" data-name="Ellipse 2" cx="3.175" cy="3.175" r="3.175" transform="translate(309.626 85.274)" fill="#fff"/>
  </g>
</svg>
