<svg xmlns="http://www.w3.org/2000/svg" width="108.601" height="68.122" viewBox="0 0 108.601 68.122">
  <path id="Exclusion_6" data-name="Exclusion 6" d="M89.322,68.122H19.275A19.987,19.987,0,0,1,0,48,20.773,20.773,0,0,1,14.06,28.275,15.729,15.729,0,0,1,29.2,12.655a14.9,14.9,0,0,1,5.7,1.126A31.791,31.791,0,0,1,57.649.188,32.175,32.175,0,0,1,61.115,0,31.863,31.863,0,0,1,92.7,28.49a20.058,20.058,0,0,1,10.529,33.281A19.8,19.8,0,0,1,89.322,68.122ZM40.965,35.253h0V48.775a2.251,2.251,0,0,0,2.245,2.253H69.026a2.251,2.251,0,0,0,2.243-2.253V35.254l-.024.014a56.8,56.8,0,0,1-11.2,4.248v1.369a1.126,1.126,0,0,1-1.123,1.126H53.31a1.126,1.126,0,0,1-1.123-1.126V39.516a57.651,57.651,0,0,1-11.219-4.261Zm13.466,2.254a1.124,1.124,0,0,0-1.121,1.126v1.126a1.124,1.124,0,0,0,1.121,1.126H57.8a1.126,1.126,0,0,0,1.123-1.126V38.633A1.126,1.126,0,0,0,57.8,37.507ZM53.31,36.38h5.61a1.126,1.126,0,0,1,1.123,1.126v1.01a56.373,56.373,0,0,0,11.226-4.389V29.622a2.251,2.251,0,0,0-2.243-2.253h-6.74V25.117a2.252,2.252,0,0,0-2.244-2.253H52.187a2.252,2.252,0,0,0-2.245,2.253V27.37H43.21a2.251,2.251,0,0,0-2.245,2.253v4.505a56.666,56.666,0,0,0,11.222,4.389v-1.01A1.126,1.126,0,0,1,53.31,36.38Zm6.733-9.011H52.187V26.243a1.126,1.126,0,0,1,1.123-1.126h5.61a1.126,1.126,0,0,1,1.123,1.126v1.125Z" transform="translate(0.001)" fill="#232f5d"/>
</svg>
