<svg xmlns="http://www.w3.org/2000/svg" width="34" height="45.167" viewBox="0 0 34 45.167">
  <g id="Group_14076" data-name="Group 14076" transform="translate(14131 1293.167)">
    <path id="Path_12394" data-name="Path 12394" d="M664.264,55.715A7.841,7.841,0,0,0,650.019,52.1a3.7,3.7,0,0,0-1.406-.277,3.871,3.871,0,0,0-3.732,3.837,5.106,5.106,0,0,0-3.466,4.845,4.916,4.916,0,0,0,4.752,4.94h17.266a4.919,4.919,0,0,0,.831-9.733Z" transform="translate(-14769.684 -1341.886)" fill="#feffff"/>
    <g id="Rectangle_4182" data-name="Rectangle 4182" transform="translate(-14131 -1263)" fill="none" stroke="#fff" stroke-width="1">
      <rect width="10" height="15" rx="1" stroke="none"/>
      <rect x="0.5" y="0.5" width="9" height="14" rx="0.5" fill="none"/>
    </g>
    <g id="Path_12403" data-name="Path 12403" transform="translate(-14119 -1263)" fill="none">
      <path d="M1,0H9a1,1,0,0,1,1,1V14a1,1,0,0,1-1,1H1a1,1,0,0,1-1-1V1A1,1,0,0,1,1,0Z" stroke="none"/>
      <path d="M 1 1 L 1 14 L 9 14 L 9 1 L 1 1 M 1 0 L 9 0 C 9.552289962768555 0 10 0.4477100372314453 10 1 L 10 14 C 10 14.55228042602539 9.552289962768555 15 9 15 L 1 15 C 0.4477100372314453 15 0 14.55228042602539 0 14 L 0 1 C 0 0.4477100372314453 0.4477100372314453 0 1 0 Z" stroke="none" fill="#fff"/>
    </g>
    <g id="Path_12404" data-name="Path 12404" transform="translate(-14107 -1263)" fill="none" stroke-linecap="round">
      <path d="M1,0H9a1,1,0,0,1,1,1V14a1,1,0,0,1-1,1H1a1,1,0,0,1-1-1V1A1,1,0,0,1,1,0Z" stroke="none"/>
      <path d="M 1 1 L 1 14 L 9 14 L 9 1 L 1 1 M 1 0 L 9 0 C 9.552289962768555 0 10 0.4477100372314453 10 1 L 10 14 C 10 14.55228042602539 9.552289962768555 15 9 15 L 1 15 C 0.4477100372314453 15 0 14.55228042602539 0 14 L 0 1 C 0 0.4477100372314453 0.4477100372314453 0 1 0 Z" stroke="none" fill="#fff"/>
    </g>
    <line id="Line_579" data-name="Line 579" x2="27" transform="translate(-14128.5 -1265.5)" fill="none" stroke="#fff" stroke-linecap="round" stroke-width="1.5"/>
    <g id="Icon_feather-arrow-down" data-name="Icon feather-arrow-down" transform="translate(-14118.146 -1273.938)">
      <path id="Path_12401" data-name="Path 12401" d="M18,15.438V7.5" transform="translate(-14.218 -7.5)" fill="none" stroke="#fff" stroke-linecap="round" stroke-linejoin="round" stroke-width="1.5"/>
      <path id="Path_12402" data-name="Path 12402" d="M15.064,23.073,11.282,18,7.5,23.073" transform="translate(-7.5 -18)" fill="none" stroke="#fff" stroke-linecap="round" stroke-linejoin="round" stroke-width="1.5"/>
    </g>
  </g>
</svg>
