<svg xmlns="http://www.w3.org/2000/svg" width="36.868" height="39.482" viewBox="0 0 36.868 39.482">
  <g id="microsoft-365-svgrepo-com" transform="translate(-2.936 -1.451)">
    <path id="Path_12363" data-name="Path 12363" d="M18.334,3.241,7.852,8.887a7.472,7.472,0,0,0-3.916,6.572V27.1a7.472,7.472,0,0,0,3.917,6.572" transform="translate(0 -0.097)" fill="none" stroke="#fff" stroke-linecap="round" stroke-linejoin="round" stroke-width="2"/>
    <path id="Path_12364" data-name="Path 12364" d="M23.157,30.941,20.7,29.589a7.472,7.472,0,0,1-3.868-6.545V19.506" transform="translate(-1.691 -2.229)" fill="none" stroke="#fff" stroke-linecap="round" stroke-linejoin="round" stroke-width="2"/>
    <path id="Path_12365" data-name="Path 12365" d="M28.1,19.275v3.867a7.472,7.472,0,0,1-3.917,6.572L14.218,35.1a7.471,7.471,0,0,1-6.461.311q.288.193.6.36l9.962,5.389a7.472,7.472,0,0,0,7.109,0l9.962-5.389A7.472,7.472,0,0,0,39.3,29.2" transform="translate(-0.501 -2.199)" fill="none" stroke="#fff" stroke-linecap="round" stroke-linejoin="round" stroke-width="2"/>
    <path id="Path_12366" data-name="Path 12366" d="M36.578,8.79,26.616,3.4a7.472,7.472,0,0,0-6.591-.256,7.472,7.472,0,0,0-3.191,6.124v7.807l2.857-1.444a7.472,7.472,0,0,1,6.739,0l9.962,5.034a7.472,7.472,0,0,1,4.1,6.5c0-.055,0-.111,0-.166V15.362A7.472,7.472,0,0,0,36.578,8.79h0Z" transform="translate(-1.691 0)" fill="rgba(255,126,126,0)" stroke="#fff" stroke-linecap="round" stroke-linejoin="round" stroke-width="2"/>
  </g>
</svg>
