<svg id="Group_14096" data-name="Group 14096" xmlns="http://www.w3.org/2000/svg" width="127.753" height="128.272" viewBox="0 0 127.753 128.272">
  <path id="Path_12227" data-name="Path 12227" d="M-1384.584,392.84c-2.21,14.231.177,26.075,7.336,40.041a13.748,13.748,0,0,1-2.033-1.856,61.376,61.376,0,0,1-12.463-20.948,55.221,55.221,0,0,1-3.359-19.623c.442-18.385,7.513-33.765,21.391-45.786,7.07-6.1,15.2-10.165,22.628-11.668-3.36,2.74-6.895,5.392-10.166,8.4a85.939,85.939,0,0,0-9.1,9.723,79.638,79.638,0,0,0-7.425,11.226,78.777,78.777,0,0,0-5.392,12.2,83.669,83.669,0,0,0-3.359,13.082c-.883,4.331-1.237,8.839-1.856,13.258C-1388.385,400.884-1386.794,395.668-1384.584,392.84Z" transform="translate(1397.001 -320.519)" fill="#24305d"/>
  <path id="Path_12228" data-name="Path 12228" d="M-1270.8,355.888c3.093,1.768,5.3,5.215,6.894,7.6-.972-3.005-1.768-6.1-2.917-9.016s-2.829-5.568-4.332-8.574c14.761,15.91,19.358,38.538,12.286,59.487-.53-3.978-1.856-11.4-1.944-11.4a57.883,57.883,0,0,1-3.535,13.435,41.6,41.6,0,0,1-7.16,11.844c2.386-5.657,4.773-11.226,4.862-17.59a33.317,33.317,0,0,1-2.74,3.359c.265-2.121.619-6.541.531-6.541-2.387,3.535-4.862,6.983-8.839,9.458C-1267.447,391.509-1265.06,374.273-1270.8,355.888Z" transform="translate(1383.369 -322.017)" fill="#24305d"/>
  <path id="Path_12229" data-name="Path 12229" d="M-1323.919,417.469a10.747,10.747,0,0,1-.885,1.238,21.564,21.564,0,0,0-3.889,7.955c-.619,2.563.972,4.243,3.447,3.624a19.573,19.573,0,0,0,7.69-4.066c6.01-4.862,10.7-10.96,14.761-17.59,4.332-6.894,7.424-14.407,10.43-21.921A164.222,164.222,0,0,0-1285.2,363.2c.53-2.386,1.767-8.4,1.855-8.4-.176,1.856-.353,3.624-.619,5.48-.883,5.657-1.414,11.4-2.739,16.971-2.21,9.281-4.773,18.385-8.927,26.959a144.6,144.6,0,0,1-7.514,12.905,57.065,57.065,0,0,1-12.021,14.407c-3.447,2.828-6.983,5.657-11.05,7.513a13.674,13.674,0,0,1-6.806,1.414c-2.563-.177-4.154-2.74-3.977-5.3a13.183,13.183,0,0,1,2.387-6.453C-1331.7,424.186-1323.919,417.469-1323.919,417.469Z" transform="translate(1390.254 -323.05)" fill="#24305d"/>
  <path id="Path_12230" data-name="Path 12230" d="M-1337.3,321.2c6.1-1.591,15.2-2.917,21.479-2.033,9.722,1.414,15.821,3.094,24.837,9.369-4.331-1.326-8.574-2.917-13.523-2.74,2.651,3.182,3.093,6.364.707,9.9C-1312.109,324.024-1323.246,319.074-1337.3,321.2Z" transform="translate(1390.288 -318.88)" fill="#24305d"/>
  <path id="Path_12231" data-name="Path 12231" d="M-1304.5,460.958a58.607,58.607,0,0,0,18.3-18.385c-.176.707-.265,1.414-.441,2.121a20,20,0,0,1-.708,2.121c-.265.707-.618,1.326-1.061,2.3,6.187-2.74,10.872-6.895,15.469-11.314C-1280.016,450.263-1291.6,456.539-1304.5,460.958Z" transform="translate(1386.48 -332.686)" fill="#24305d"/>
  <path id="Path_12232" data-name="Path 12232" d="M-1305.346,456.576c-3.27,2.21-4.419,2.828-6.895,3.624a26.948,26.948,0,0,1-10.96,1.326c10.43-2.563,19.269-8.308,27.489-15.026C-1299.158,450.743-1301.368,453.836-1305.346,456.576Z" transform="translate(1388.65 -333.696)" fill="#24305d"/>
  <path id="Path_12233" data-name="Path 12233" d="M-1376.9,395.979s1.591-4.154,2.387-6.187c2.122-5.038,3.8-9.723,6.365-15.115s4.33-9.458,8.4-14.054a15.138,15.138,0,0,1,4.861-4.066,6.819,6.819,0,0,1,6.983,0c3.447,1.945,5.922,5.038,8.574,7.955a64.341,64.341,0,0,0,5.922,6.1c4.154,3.624,8.751,3.624,13.082.177,4.066-3.27,6.63-6.718,9.37-11.933S-1301.5,341-1301.5,341s-1.68,4.066-2.563,6.01c-2.74,6.01-5.126,12.109-8.043,17.943-2.475,4.862-4.685,9.458-7.6,13.435-2.652,3.712-4.155,4.95-6.452,6.453-2.3,1.414-7.337,2.829-11.049-.177a79.182,79.182,0,0,1-6.629-6.718,31.561,31.561,0,0,0-6.719-6.1c-3.535-2.122-6.894-1.679-10.076.619-3.8,2.74-6.364,6.452-8.574,10.518C-1371.508,386.963-1376.9,395.979-1376.9,395.979Z" transform="translate(1394.886 -321.448)" fill="#24305d"/>
  <path id="Path_12234" data-name="Path 12234" d="M-1364.059,334.6a93.189,93.189,0,0,0-9.989,6.452,78.662,78.662,0,0,0-10.252,10.077c-10.077,12.728-12.906,24.4-12.906,24.4s-1.326-11.491,10.872-27.4C-1376.7,335.838-1364.059,334.6-1364.059,334.6Z" transform="translate(1397.248 -320.705)" fill="#24305d"/>
</svg>
