<svg xmlns="http://www.w3.org/2000/svg" width="35.395" height="29.837" viewBox="0 0 35.395 29.837">
  <g id="Group_14098" data-name="Group 14098" transform="translate(-34.938 -70.341)">
    <g id="Group_14075" data-name="Group 14075" transform="translate(15050.481 1052.135)">
      <g id="Group_14074" data-name="Group 14074">
        <path id="Path_12367" data-name="Path 12367" d="M2.783,0H30.612a2.756,2.756,0,0,1,2.783,2.728v19.1a2.756,2.756,0,0,1-2.783,2.728H2.783A2.756,2.756,0,0,1,0,21.825V2.728A2.756,2.756,0,0,1,2.783,0Z" transform="translate(-15014.544 -980.795)" fill="none" stroke="#fff" stroke-linecap="round" stroke-linejoin="bevel" stroke-width="2"/>
        <line id="Line_578" data-name="Line 578" x2="35" transform="translate(-15015.347 -960.5)" fill="none" stroke="#fff" stroke-width="2"/>
      </g>
      <path id="Path_12368" data-name="Path 12368" d="M-14954.072-954.881v2.563" transform="translate(-43.774 -1)" fill="none" stroke="#fff" stroke-width="2"/>
      <path id="Path_12369" data-name="Path 12369" d="M-14959.146-951.766h12.566" transform="translate(-44.983 -1.192)" fill="none" stroke="#fff" stroke-width="2"/>
    </g>
    <path id="Path_12370" data-name="Path 12370" d="M415.93,416.172l.708-.992-.776-.776-.992.708a2.726,2.726,0,0,0-.588-.244l-.2-1.2h-1.1l-.2,1.2a2.727,2.727,0,0,0-.587.243l-.99-.709-.776.776.708.992a2.724,2.724,0,0,0-.243.587l-1.2.2v1.1l1.2.2a2.724,2.724,0,0,0,.243.587l-.709.992.776.776.992-.708a2.721,2.721,0,0,0,.586.244l.2,1.2h1.1l.2-1.2a2.726,2.726,0,0,0,.588-.244l.992.708.776-.776-.708-.992a2.73,2.73,0,0,0,.244-.587l1.2-.2v-1.1l-1.2-.2a5.112,5.112,0,0,0-.244-.587Zm-2.4,2.434a1.1,1.1,0,1,1,1.1-1.1,1.1,1.1,0,0,1-1.1,1.1m13.719-8.232v-1.1l-1.156-.21q-.032-.205-.081-.408l.987-.636-.42-1.014-1.148.248q-.108-.178-.231-.345l.672-.966-.779-.776-.968.669q-.168-.123-.345-.232l.249-1.15-1.014-.42-.637.989q-.2-.049-.408-.081l-.21-1.156h-1.1l-.21,1.156q-.205.032-.408.081l-.636-.987-1.014.418.247,1.151q-.177.108-.345.232l-.964-.669-.777.776.669.968q-.123.168-.232.345l-1.148-.248-.42,1.014.987.637q-.049.2-.081.408l-1.156.21v1.1l1.156.21q.032.205.081.408l-.987.634.42,1.014L417,412.4q.108.178.232.345l-.669.968.776.775.968-.669q.168.123.345.231l-.248,1.148,1.014.42.636-.987q.2.049.408.081l.21,1.156h1.1l.21-1.156q.205-.032.408-.081l.634.988,1.014-.42-.248-1.148q.178-.108.345-.231l.968.669.778-.777-.669-.968q.123-.168.231-.345l1.148.248.42-1.014-.987-.636q.049-.2.081-.408l1.156-.21Zm-6.034,1.838a2.387,2.387,0,1,1,2.387-2.387,2.387,2.387,0,0,1-2.387,2.387h0Z" transform="matrix(0.966, 0.259, -0.259, 0.966, -244.8, -424.727)" fill="#fff"/>
  </g>
</svg>
