<svg xmlns="http://www.w3.org/2000/svg" width="72.383" height="73.903" viewBox="0 0 72.383 73.903">
  <g id="Group_14096" data-name="Group 14096" transform="translate(-45.218 -22.621)">
    <path id="Path_12320" data-name="Path 12320" d="M504.6,107.063H459.25a3.239,3.239,0,0,1-3.239-3.239V97.346a3.239,3.239,0,0,1,3.239-3.239H504.6a3.238,3.238,0,0,1,3.239,3.239v6.478a3.239,3.239,0,0,1-3.239,3.239m-4.859-8.907a2.43,2.43,0,1,0,2.43,2.43v0a2.428,2.428,0,0,0-2.429-2.429Zm-6.478,0a2.43,2.43,0,1,0,2.43,2.43v0a2.428,2.428,0,0,0-2.429-2.429Zm11.337,25.1H459.25a3.239,3.239,0,0,1-3.239-3.239v-6.478a3.239,3.239,0,0,1,3.239-3.239H504.6a3.239,3.239,0,0,1,3.239,3.239v6.478a3.238,3.238,0,0,1-3.239,3.239m-4.859-8.907a2.43,2.43,0,1,0,2.43,2.43h0a2.429,2.429,0,0,0-2.429-2.429Zm-6.478,0a2.43,2.43,0,1,0,2.43,2.43h0a2.429,2.429,0,0,0-2.429-2.429Zm11.337,25.1H459.25a3.239,3.239,0,0,1-3.239-3.239v-6.478a3.239,3.239,0,0,1,3.239-3.239H504.6a3.238,3.238,0,0,1,3.239,3.239v6.478a3.239,3.239,0,0,1-3.239,3.239m-4.859-8.907a2.43,2.43,0,1,0,2.43,2.43,2.43,2.43,0,0,0-2.43-2.43Zm-6.478,0a2.43,2.43,0,1,0,2.43,2.43,2.43,2.43,0,0,0-2.43-2.43Z" transform="translate(-410.793 -42.928)" fill="#fff"/>
    <path id="Path_12321" data-name="Path 12321" d="M533.814,74.687a12.281,12.281,0,1,0-4.133,4.131l8.331,8.331,4.132-4.134Zm-10.47,1.244a7.575,7.575,0,1,1,7.579-7.572,7.575,7.575,0,0,1-7.579,7.572" transform="translate(-424.543 -33.41)" fill="#fff"/>
  </g>
</svg>
