<svg xmlns="http://www.w3.org/2000/svg" width="51.753" height="51.752" viewBox="0 0 51.753 51.752">
  <path id="Path_12319" data-name="Path 12319" d="M240.8,275.73a32.682,32.682,0,0,1-10.265-1.639,2.933,2.933,0,0,0-2.933.69l-6.326,6.325a43.342,43.342,0,0,1-18.946-18.918l6.325-6.354a2.82,2.82,0,0,0,.719-2.9,32.68,32.68,0,0,1-1.639-10.264,2.875,2.875,0,0,0-2.875-2.875H194.8a2.875,2.875,0,0,0-2.875,2.875A48.877,48.877,0,0,0,240.8,291.543a2.875,2.875,0,0,0,2.875-2.875V278.6a2.875,2.875,0,0,0-2.875-2.875m-23-35.939v28.751l8.625-8.625h17.251V239.791Z" transform="translate(-191.921 -239.791)" fill="#fff"/>
</svg>
