<svg xmlns="http://www.w3.org/2000/svg" width="89.864" height="72.686" viewBox="0 0 89.864 72.686">
  <g id="Group_14111" data-name="Group 14111" transform="translate(-2350 -2106)">
    <g id="user-tie" transform="translate(2350 2106)" fill="#2b4eaf">
      <path d="M 56.78579711914062 72.31082153320312 L 6.814298629760742 72.31082153320312 C 3.263658761978149 72.31082153320312 0.3749988377094269 69.42217254638672 0.3749988377094269 65.87152862548828 L 0.3749988377094269 62.23723220825195 C 0.3749988377094269 57.3013916015625 2.282738924026489 52.64939117431641 5.746778964996338 49.13819122314453 C 9.13953971862793 45.69924163818359 13.6490421295166 43.73263549804688 18.47331047058105 43.58157348632812 L 24.02917861938477 62.85219192504883 L 24.36355972290039 64.01200103759766 L 24.74525833129883 62.86690139770508 L 29.55785942077637 48.42911148071289 L 29.63114929199219 48.2092399597168 L 29.4672679901123 48.04534912109375 L 25.91815948486328 44.49624252319336 C 25.25515937805176 43.833251953125 25.2690486907959 42.99317169189453 25.50312805175781 42.42806243896484 C 25.73686790466309 41.86375045776367 26.32040977478027 41.26076889038086 27.25718879699707 41.26076889038086 L 36.34291839599609 41.26076889038086 C 37.2757682800293 41.26076889038086 37.85879898071289 41.86590194702148 38.09337997436523 42.43220901489258 C 38.32737731933594 42.99713134765625 38.34217071533203 43.83602142333984 37.68193817138672 44.49624252319336 L 34.13282775878906 48.04534912109375 L 33.96894836425781 48.2092399597168 L 34.04224014282227 48.42911148071289 L 38.85483932495117 62.86690139770508 L 39.23666763305664 64.01239013671875 L 39.57093811035156 62.85211944580078 L 45.12673187255859 43.56777572631836 C 49.95148849487305 43.72558212280273 54.46126937866211 45.69641876220703 57.85324859619141 49.1363525390625 C 61.31733703613281 52.64941024780273 63.22509765625 57.30205917358398 63.22509765625 62.23723220825195 L 63.22509765625 65.87152862548828 C 63.22509765625 69.42217254638672 60.3364372253418 72.31082153320312 56.78579711914062 72.31082153320312 Z M 47.86666870117188 47.74259185791016 L 47.76564025878906 48.09308242797852 L 42.01607894897461 68.03909301757812 L 41.87804794311523 68.51795959472656 L 42.37640762329102 68.51795959472656 L 56.78579711914062 68.51795959472656 C 58.24504852294922 68.51795959472656 59.43222808837891 67.33078002929688 59.43222808837891 65.87152862548828 L 59.43222808837891 65.49652862548828 L 59.41802978515625 65.49652862548828 L 59.41802978515625 62.23723220825195 C 59.41802978515625 55.46115112304688 54.81315994262695 49.53828048706055 48.21981811523438 47.83388137817383 L 47.86666870117188 47.74259185791016 Z M 31.800048828125 53.69647979736328 L 31.44425964355469 54.76501083374023 L 27.02915954589844 68.02449035644531 L 26.86483955383301 68.51795959472656 L 27.38494873046875 68.51795959472656 L 36.21514892578125 68.51795959472656 L 36.73526000976562 68.51795959472656 L 36.57093811035156 68.02449035644531 L 32.15583801269531 54.76501083374023 L 31.800048828125 53.69647979736328 Z M 15.71900844573975 47.74264907836914 L 15.3660888671875 47.83388137817383 C 8.772738456726074 49.53828048706055 4.167868614196777 55.46115112304688 4.167868614196777 62.23723220825195 L 4.167868614196777 65.87152862548828 C 4.167868614196777 67.33078002929688 5.355048656463623 68.51795959472656 6.814298629760742 68.51795959472656 L 21.22368812561035 68.51795959472656 L 21.72239875793457 68.51795959472656 L 21.58394813537598 68.03886413574219 L 15.82019901275635 48.09284973144531 L 15.71900844573975 47.74264907836914 Z M 31.800048828125 35.96791076660156 C 27.04592895507812 35.96791076660156 22.57669830322266 34.11690139770508 19.21564865112305 30.75584983825684 C 15.85459899902344 27.39480018615723 14.00358867645264 22.92558097839355 14.00358867645264 18.17146110534668 C 14.00358867645264 13.4173412322998 15.85459899902344 8.948110580444336 19.21564865112305 5.587060928344727 C 22.57669830322266 2.226010799407959 27.04592895507812 0.3750007748603821 31.800048828125 0.3750007748603821 C 36.55416870117188 0.3750007748603821 41.02339935302734 2.226010799407959 44.38444900512695 5.587060928344727 C 47.74549865722656 8.948110580444336 49.59650802612305 13.4173412322998 49.59650802612305 18.17146110534668 C 49.59650802612305 22.92558097839355 47.74549865722656 27.39480018615723 44.38444900512695 30.75584983825684 C 41.02339935302734 34.11690139770508 36.55416870117188 35.96791076660156 31.800048828125 35.96791076660156 Z M 31.800048828125 4.167860984802246 C 24.07843971252441 4.167860984802246 17.79645919799805 10.44985103607178 17.79645919799805 18.17146110534668 C 17.79645919799805 25.89307022094727 24.07843971252441 32.17505264282227 31.800048828125 32.17505264282227 C 39.52165985107422 32.17505264282227 45.80363845825195 25.89307022094727 45.80363845825195 18.17146110534668 C 45.80363845825195 10.44985103607178 39.52165985107422 4.167860984802246 31.800048828125 4.167860984802246 Z" stroke="none"/>
      <path d="M 31.800048828125 0.75 C 27.14608764648438 0.75 22.77103805541992 2.56201171875 19.48081970214844 5.85223388671875 C 16.19059753417969 9.142440795898438 14.37858963012695 13.51750183105469 14.37858963012695 18.17145156860352 C 14.37858963012695 22.82540893554688 16.19059753417969 27.20046234130859 19.48081970214844 30.49068069458008 C 22.77103805541992 33.78089904785156 27.14608764648438 35.59291076660156 31.800048828125 35.59291076660156 C 36.45401000976562 35.59291076660156 40.82905960083008 33.78089904785156 44.11927795410156 30.49068069458008 C 47.40950012207031 27.20046234130859 49.22149658203125 22.82540893554688 49.22149658203125 18.17145156860352 C 49.22149658203125 13.51750183105469 47.40950012207031 9.142440795898438 44.11927795410156 5.852218627929688 C 40.82905960083008 2.56201171875 36.45401000976562 0.75 31.800048828125 0.75 M 31.800048828125 32.55005264282227 C 23.87166976928711 32.55005264282227 17.42145919799805 26.0998420715332 17.42145919799805 18.17145156860352 C 17.42145919799805 10.24307250976562 23.87166976928711 3.792861938476562 31.800048828125 3.792861938476562 C 39.72842788696289 3.792861938476562 46.17863845825195 10.24307250976562 46.17863845825195 18.17145156860352 C 46.17863845825195 26.0998420715332 39.72842788696289 32.55005264282227 31.800048828125 32.55005264282227 M 27.2571907043457 41.63577270507812 C 26.61849975585938 41.63577270507812 26.09230041503906 41.98560333251953 25.84957885742188 42.57157135009766 C 25.60643768310547 43.1585807800293 25.73119735717773 43.77895355224609 26.18331909179688 44.23107147216797 L 30.06018829345703 48.10794830322266 L 24.33760833740234 65.27567291259766 L 18.19436645507812 43.96775817871094 C 13.57656097412109 44.18419647216797 9.270156860351562 46.10080718994141 6.013729095458984 49.40155792236328 C 2.619358062744141 52.84213256835938 0.75 57.40060043334961 0.75 62.23722839355469 L 0.75 65.87152862548828 C 0.75 69.21539306640625 3.470428466796875 71.93582153320312 6.814300537109375 71.93582153320312 L 56.78579711914062 71.93582153320312 C 60.12966918945312 71.93582153320312 62.85009765625 69.21539306640625 62.85009765625 65.87152862548828 L 62.85009765625 62.23722839355469 C 62.85009765625 57.40122985839844 60.98069000244141 52.84209060668945 57.58622741699219 49.39965057373047 C 54.33045196533203 46.09783935546875 50.02402877807617 44.17718505859375 45.40560913085938 43.95436096191406 L 39.26274871826172 65.27645111083984 L 33.53990936279297 48.10794830322266 L 37.41677856445312 44.23107147216797 C 37.86654663085938 43.78130340576172 37.98996734619141 43.16248321533203 37.74691772460938 42.57572174072266 C 37.55870819091797 42.12132263183594 37.09102630615234 41.63577270507812 36.34291839599609 41.63577270507812 L 27.2571907043457 41.63577270507812 M 59.79302978515625 65.12152862548828 L 59.80722808837891 65.12152862548828 L 59.80722808837891 65.87152862548828 C 59.80722808837891 67.53755187988281 58.45182037353516 68.89295959472656 56.78579711914062 68.89295959472656 L 41.37966918945312 68.89295959472656 L 47.60736846923828 47.28823852539062 L 48.31367874145508 47.47082138061523 C 55.07254791259766 49.21800994873047 59.79302978515625 55.29016876220703 59.79302978515625 62.23722839355469 L 59.79302978515625 65.12152862548828 M 22.22109985351562 68.89295959472656 L 6.814300537109375 68.89295959472656 C 5.148269653320312 68.89295959472656 3.792858123779297 67.53755187988281 3.792858123779297 65.87152862548828 L 3.792858123779297 62.23722839355469 C 3.792858123779297 55.29018020629883 8.513347625732422 49.21800994873047 15.27222061157227 47.47082138061523 L 15.97805786132812 47.28836059570312 L 22.22109985351562 68.89295959472656 M 37.25537109375 68.89295959472656 L 26.34473037719727 68.89295959472656 L 31.800048828125 52.50946807861328 L 37.25537109375 68.89295959472656 M 31.800048828125 0 C 41.83693695068359 0 49.97149658203125 8.134567260742188 49.97149658203125 18.17145156860352 C 49.97149658203125 28.20833969116211 41.83693695068359 36.34291076660156 31.800048828125 36.34291076660156 C 21.76316070556641 36.34291076660156 13.62858963012695 28.20833969116211 13.62858963012695 18.17145156860352 C 13.62858963012695 8.134567260742188 21.76316070556641 0 31.800048828125 0 Z M 31.800048828125 31.80005264282227 C 39.30996704101562 31.80005264282227 45.42863845825195 25.68138122558594 45.42863845825195 18.17145156860352 C 45.42863845825195 10.66152954101562 39.30996704101562 4.542861938476562 31.800048828125 4.542861938476562 C 24.29013061523438 4.542861938476562 18.17145919799805 10.66154098510742 18.17145919799805 18.17145156860352 C 18.17145919799805 25.68138122558594 24.29013061523438 31.80005264282227 31.800048828125 31.80005264282227 Z M 27.2571907043457 40.88577270507812 L 36.34291839599609 40.88577270507812 C 38.35881042480469 40.88577270507812 39.38095855712891 43.32756042480469 37.94710922241211 44.76139831542969 L 34.39799880981445 48.31052017211914 L 39.21059799194336 62.74829864501953 L 44.84658050537109 43.18560028076172 C 55.23838806152344 43.37015151977539 63.60009765625 51.81703948974609 63.60009765625 62.23722839355469 L 63.60009765625 65.87152862548828 C 63.60009765625 69.63358306884766 60.54785919189453 72.68582153320312 56.78579711914062 72.68582153320312 L 6.814300537109375 72.68582153320312 C 3.052238464355469 72.68582153320312 0 69.63358306884766 0 65.87152862548828 L 0 62.23722839355469 C 0 51.81703948974609 8.361709594726562 43.37015151977539 18.75350952148438 43.19979095458984 L 24.38949966430664 62.74829864501953 L 29.20209884643555 48.31052017211914 L 25.65298843383789 44.76139831542969 C 24.21915054321289 43.32756805419922 25.22710037231445 40.88577270507812 27.2571907043457 40.88577270507812 Z M 21.22369003295898 68.14295959472656 L 15.45993041992188 48.19695281982422 C 9.199298858642578 49.81533813476562 4.542858123779297 55.5365104675293 4.542858123779297 62.23722839355469 L 4.542858123779297 65.87152862548828 C 4.542858123779297 67.12081146240234 5.565010070800781 68.14295959472656 6.814300537109375 68.14295959472656 L 21.22369003295898 68.14295959472656 Z M 56.78579711914062 68.14295959472656 C 58.03507995605469 68.14295959472656 59.05722808837891 67.12081146240234 59.05722808837891 65.87152862548828 L 59.04302978515625 65.87152862548828 L 59.04302978515625 62.23722839355469 C 59.04302978515625 55.5365104675293 54.3865966796875 49.81533813476562 48.12596893310547 48.19695281982422 L 42.37639617919922 68.14295959472656 L 56.78579711914062 68.14295959472656 Z M 36.21514892578125 68.14295959472656 L 31.800048828125 54.88346862792969 L 27.38494873046875 68.14295959472656 L 36.21514892578125 68.14295959472656 Z" stroke="none" fill="#fff"/>
    </g>
    <g id="user-md-chat" transform="translate(2019.533 2106.001)" fill="#2b4eaf">
      <path d="M 384.9348754882812 35.96649551391602 C 384.7142944335938 35.96649551391602 384.52294921875 35.79522705078125 384.4230651855469 35.50835418701172 C 384.3076477050781 35.18808746337891 384.356201171875 34.83569717407227 384.5515747070312 34.56187438964844 C 386.3079223632812 32.08312606811523 387.8150939941406 29.41606521606445 389.0320129394531 26.63374519348145 L 389.1360168457031 26.39593505859375 L 388.9500732421875 26.21483612060547 C 387.5066833496094 24.80900573730469 386.3780212402344 23.22657585144043 385.595458984375 21.51149559020996 C 384.7776489257812 19.71909523010254 384.3629760742188 17.83112525939941 384.3629760742188 15.90002632141113 C 384.3629760742188 11.7640962600708 386.2077026367188 7.871955871582031 389.557373046875 4.940585613250732 C 392.921630859375 1.996415853500366 397.3971252441406 0.3749958574771881 402.159423828125 0.3749958574771881 C 406.9227905273438 0.3749958574771881 411.3984985351562 1.995855808258057 414.7620544433594 4.939005851745605 C 418.1113891601562 7.869685649871826 419.9559326171875 11.76238632202148 419.9559326171875 15.90002632141113 C 419.9559326171875 20.03765678405762 418.1113891601562 23.93035507202148 414.7620544433594 26.86104583740234 C 411.3984985351562 29.80418586730957 406.9227905273438 31.42504501342773 402.159423828125 31.42504501342773 C 400.9428100585938 31.42421531677246 399.7187194824219 31.31306648254395 398.5214538574219 31.09468650817871 L 398.3598327636719 31.06520652770996 L 398.2285766601562 31.16403579711914 C 393.9968872070312 34.35071563720703 389.5242309570312 35.96649551391602 384.9348754882812 35.96649551391602 Z M 393.6638488769531 25.51059913635254 L 392.5086669921875 28.15177536010742 C 392.2646179199219 28.71915626525879 391.9927062988281 29.30756568908691 391.676513671875 29.95273590087891 L 391.1966857910156 30.93178558349609 L 392.1772155761719 30.45501518249512 C 393.5053100585938 29.80925559997559 394.7745666503906 29.02865600585938 395.9497680664062 28.13488578796387 L 397.4044494628906 27.03932952880859 L 399.1992492675781 27.36495590209961 C 400.1734313964844 27.54152679443359 401.1692810058594 27.63142585754395 402.1591186523438 27.6321849822998 C 409.8810424804688 27.6321849822998 416.1630249023438 22.36915588378906 416.1630249023438 15.90002632141113 C 416.1630249023438 9.430895805358887 409.8810424804688 4.167865753173828 402.159423828125 4.167865753173828 C 394.4378356933594 4.167865753173828 388.1558837890625 9.430895805358887 388.1558837890625 15.90002632141113 C 388.1558837890625 19.41592597961426 390.0272827148438 21.97276496887207 391.59716796875 23.49856567382812 L 393.6638488769531 25.51059913635254 Z" stroke="none"/>
      <path d="M 402.159423828125 0.7499961853027344 C 392.55322265625 0.7499961853027344 384.7379760742188 7.546276092529297 384.7379760742188 15.90002632141113 C 384.7379760742188 17.77704620361328 385.1412658691406 19.61264610290527 385.9366149902344 21.35582542419434 C 386.6998291015625 23.02848625183105 387.8017272949219 24.57290649414062 389.2117004394531 25.94619560241699 L 389.5835876464844 26.30839538574219 L 389.3755798339844 26.78401565551758 C 388.1484680175781 29.58965682983398 386.6286315917969 32.27910614013672 384.8568420410156 34.7796745300293 C 384.7329711914062 34.95330429077148 384.7021789550781 35.17673492431641 384.7744750976562 35.37735748291016 L 384.7771911621094 35.38504409790039 C 384.8267822265625 35.52744674682617 384.8992614746094 35.59149551391602 384.9348754882812 35.59149551391602 C 389.4410400390625 35.59149551391602 393.8377685546875 34.00109481811523 398.0029907226562 30.86446571350098 L 398.2654724121094 30.66679573059082 L 398.5887451171875 30.72575569152832 C 399.7639465332031 30.94012641906738 400.9654541015625 31.04922485351562 402.159423828125 31.05004501342773 C 406.8319396972656 31.05004501342773 411.2199401855469 29.46213531494141 414.5151062011719 26.57882690429688 C 417.7818603515625 23.72040557861328 419.5809326171875 19.92792510986328 419.5809326171875 15.90002632141113 C 419.5809326171875 11.87211608886719 417.7818603515625 8.079645156860352 414.5151062011719 5.221216201782227 C 411.2199401855469 2.337905883789062 406.8319396972656 0.7499961853027344 402.159423828125 0.7499961853027344 M 402.159423828125 28.00718688964844 L 402.1588439941406 28.00718688964844 C 401.1466674804688 28.00640487670898 400.12841796875 27.91447448730469 399.1322937011719 27.73392486572266 L 397.4989929199219 27.43759536743164 L 396.1767883300781 28.43336486816406 C 394.9819030761719 29.34208679199219 393.6914367675781 30.1357364654541 392.3412170410156 30.79225540161133 L 390.380126953125 31.74579620361328 L 391.3397827148438 29.78770637512207 C 391.6532592773438 29.14805603027344 391.9226379394531 28.56515502929688 392.1650695800781 28.00150680541992 L 393.2162170410156 25.59819221496582 L 391.3357849121094 23.76748657226562 C 389.7140502929688 22.1912956237793 387.7808837890625 19.54689598083496 387.7808837890625 15.90002632141113 C 387.7808837890625 9.224115371704102 394.2310791015625 3.792865753173828 402.159423828125 3.792865753173828 C 410.0877990722656 3.792865753173828 416.5380249023438 9.224115371704102 416.5380249023438 15.90002632141113 C 416.5380249023438 22.57593536376953 410.0877990722656 28.00718688964844 402.159423828125 28.00718688964844 M 402.159423828125 -3.814697265625e-06 C 412.1962890625 -3.814697265625e-06 420.3309326171875 7.118095397949219 420.3309326171875 15.90002632141113 C 420.3309326171875 24.68194580078125 412.1962890625 31.80004501342773 402.159423828125 31.80004501342773 C 400.916748046875 31.79919624328613 399.6766967773438 31.68658638000488 398.4541625976562 31.46358489990234 C 395.2059936523438 33.90963745117188 390.5921630859375 36.34149551391602 384.9348754882812 36.34149551391602 C 384.5558471679688 36.34149551391602 384.2236328125 36.07601547241211 384.0689086914062 35.63166427612305 C 383.9130859375 35.19935607910156 383.9794311523438 34.71810531616211 384.246337890625 34.34404754638672 C 385.9908447265625 31.88196563720703 387.479248046875 29.24810600280762 388.6884155273438 26.48347473144531 C 385.7980346679688 23.66832542419434 383.9879760742188 19.98292541503906 383.9879760742188 15.90002632141113 C 383.9879760742188 7.122356414794922 392.1239624023438 -3.814697265625e-06 402.159423828125 -3.814697265625e-06 Z M 402.159423828125 27.25718688964844 C 409.675048828125 27.25718688964844 415.7880249023438 22.16207504272461 415.7880249023438 15.90002632141113 C 415.7880249023438 9.637966156005859 409.675048828125 4.542865753173828 402.159423828125 4.542865753173828 C 394.643798828125 4.542865753173828 388.5308837890625 9.637966156005859 388.5308837890625 15.90002632141113 C 388.5308837890625 19.28303527832031 390.3408813476562 21.75463485717773 391.8585205078125 23.22965621948242 L 394.1114501953125 25.42300605773926 L 392.8522338867188 28.30204582214355 C 392.5811157226562 28.93236541748047 392.297119140625 29.53854560852051 392.0132446289062 30.11776542663574 C 393.3218994140625 29.4814567565918 394.5645141601562 28.71727561950684 395.7227783203125 27.83639526367188 L 397.3099365234375 26.64105606079102 L 399.2661743164062 26.99597549438477 C 400.220947265625 27.16902542114258 401.1891479492188 27.25643539428711 402.159423828125 27.25718688964844 Z" stroke="none" fill="#fff"/>
    </g>
  </g>
</svg>
