<svg xmlns="http://www.w3.org/2000/svg" xmlns:xlink="http://www.w3.org/1999/xlink" width="89.02" height="89.018" viewBox="0 0 89.02 89.018">
  <defs>
    <clipPath id="clip-path">
      <rect id="Rectangle_72" data-name="Rectangle 72" width="89.02" height="89.018" fill="none"/>
    </clipPath>
  </defs>
  <g id="Group_14033" data-name="Group 14033" transform="translate(0 0)">
    <g id="Group_217" data-name="Group 217" transform="translate(0 0)" clip-path="url(#clip-path)">
      <path id="Path_1760" data-name="Path 1760" d="M13.027,19.133A7.627,7.627,0,1,0,5.4,11.505a7.636,7.636,0,0,0,7.628,7.628m0-12.557A4.929,4.929,0,1,1,8.1,11.505a4.934,4.934,0,0,1,4.929-4.929" transform="translate(4.614 3.314)" fill="#2b4eaf"/>
      <path id="Path_1761" data-name="Path 1761" d="M42,19.133a7.627,7.627,0,1,0-7.628-7.628A7.635,7.635,0,0,0,42,19.133M42,6.576a4.929,4.929,0,1,1-4.929,4.929A4.934,4.934,0,0,1,42,6.576" transform="translate(29.376 3.314)" fill="#2b4eaf"/>
      <path id="Path_1762" data-name="Path 1762" d="M80.5,16.254H62.872a9.172,9.172,0,0,0-8.411-5.538h-19.9a9.18,9.18,0,0,0-8.412,5.538H8.518A8.528,8.528,0,0,0,0,24.774V45.682a4.938,4.938,0,0,0,4.933,4.933,4.837,4.837,0,0,0,2.235-.562V74a5.919,5.919,0,0,0,10.473,3.722A5.918,5.918,0,0,0,28.112,74V47.275a5.06,5.06,0,0,0,5.1-.013v26.33a6.333,6.333,0,0,0,11.3,3.865,6.334,6.334,0,0,0,11.3-3.865V47.262a5.057,5.057,0,0,0,5.1.013V74a5.918,5.918,0,0,0,10.471,3.722A5.919,5.919,0,0,0,81.852,74V50.054a4.832,4.832,0,0,0,2.235.562,4.938,4.938,0,0,0,4.933-4.933V24.774a8.528,8.528,0,0,0-8.518-8.52M4.933,47.917A2.235,2.235,0,0,1,2.7,45.682V24.774a5.827,5.827,0,0,1,5.82-5.822h7.774v1.343a1.348,1.348,0,1,0,2.7,0V18.952h6.493a9.166,9.166,0,0,0-.093.935V42.7a5.191,5.191,0,0,0,.651,2.483H9.866V26.016a1.349,1.349,0,0,0-2.7,0V45.682a2.235,2.235,0,0,1-2.235,2.235M25.415,74a3.213,3.213,0,0,1-6.426,0V52.539a1.348,1.348,0,1,0-2.7,0V74a3.213,3.213,0,0,1-6.426,0V47.882H25.415Zm27.7-.41a3.628,3.628,0,0,1-7.255,0V50.178a1.348,1.348,0,1,0-2.7,0V73.592a3.628,3.628,0,0,1-7.255,0V44.972H53.113Zm5.26-28.334A2.562,2.562,0,0,1,55.812,42.7V21.243a1.349,1.349,0,0,0-2.7,0V42.274H35.907V21.243a1.348,1.348,0,0,0-2.7,0V42.7a2.562,2.562,0,0,1-5.124,0V19.887a6.481,6.481,0,0,1,6.473-6.473h8.694a1.33,1.33,0,0,0,2.515,0h8.694a6.481,6.481,0,0,1,6.473,6.473V42.7a2.564,2.564,0,0,1-2.561,2.559M79.154,74a3.213,3.213,0,0,1-6.426,0V52.539a1.348,1.348,0,1,0-2.7,0V74A3.213,3.213,0,0,1,63.6,74V47.882H79.154Zm7.168-28.32a2.235,2.235,0,0,1-4.47,0V26.016a1.349,1.349,0,0,0-2.7,0V45.182H62.98a5.193,5.193,0,0,0,.653-2.483V19.887a9.166,9.166,0,0,0-.095-.935h6.493v1.343a1.348,1.348,0,1,0,2.7,0V18.952H80.5a5.827,5.827,0,0,1,5.82,5.822Z" transform="translate(0 9.157)" fill="#2b4eaf"/>
      <path id="Path_1763" data-name="Path 1763" d="M27.777,16.4a8.2,8.2,0,1,0-8.2-8.2,8.206,8.206,0,0,0,8.2,8.2m0-13.7a5.5,5.5,0,1,1-5.5,5.5,5.508,5.508,0,0,1,5.5-5.5" transform="translate(16.733 -0.001)" fill="#2b4eaf"/>
      <path id="Path_1764" data-name="Path 1764" d="M24.621,20.835a1.35,1.35,0,0,0-1.348,1.348v1.623a1.348,1.348,0,1,0,2.7,0V22.183a1.349,1.349,0,0,0-1.348-1.348" transform="translate(19.889 17.804)" fill="#2b4eaf"/>
      <path id="Path_1765" data-name="Path 1765" d="M24.621,13.829a1.348,1.348,0,0,0-1.348,1.348V16.8a1.348,1.348,0,1,0,2.7,0V15.177a1.348,1.348,0,0,0-1.348-1.348" transform="translate(19.889 11.817)" fill="#2b4eaf"/>
      <path id="Path_1766" data-name="Path 1766" d="M24.621,17.331a1.35,1.35,0,0,0-1.348,1.348v1.626a1.348,1.348,0,0,0,2.7,0V18.679a1.349,1.349,0,0,0-1.348-1.348" transform="translate(19.889 14.81)" fill="#2b4eaf"/>
      <path id="Path_1767" data-name="Path 1767" d="M24.621,24.337a1.35,1.35,0,0,0-1.348,1.352v.9a1.348,1.348,0,0,0,2.7,0v-.9a1.35,1.35,0,0,0-1.348-1.352" transform="translate(19.889 20.797)" fill="#2b4eaf"/>
    </g>
  </g>
</svg>
