<svg id="XMLID_40_" xmlns="http://www.w3.org/2000/svg" width="319.186" height="50.493" viewBox="0 0 319.186 50.493">
  <g id="XMLID_76_" transform="translate(0 0)">
    <path id="XMLID_105_" d="M1.148,1.848a.6.6,0,0,0-.164-.492A5.8,5.8,0,0,0,0,1.192V.7H15.246a14.7,14.7,0,0,1,2.951.328,4.9,4.9,0,0,1,2.3.984,5.846,5.846,0,0,1,1.639,1.8,6.243,6.243,0,0,1,.492,2.623,3.951,3.951,0,0,1-1.148,2.951,5.746,5.746,0,0,1-2.787,1.475h0a7.1,7.1,0,0,1,3.279,1.8,4.7,4.7,0,0,1,1.311,3.443,5.236,5.236,0,0,1-.492,2.3,7.706,7.706,0,0,1-1.475,1.967,8.689,8.689,0,0,1-2.459,1.312,11.993,11.993,0,0,1-3.607.492H0v-.492a1.386,1.386,0,0,0,.984-.328c0-.492.164-.492.164-.82ZM12.623,8.569h2.131a3.088,3.088,0,0,0,1.312-.328c.328,0,.492-.328.656-.492s.164-.492.164-.984a1.775,1.775,0,0,0-.164-.984,2.263,2.263,0,0,0-.656-.492,3.088,3.088,0,0,0-1.312-.328H7.213V8.733h5.41Zm1.312,9.017a7.19,7.19,0,0,0,3.115-.492c.656-.328.82-.984.82-1.8a2.115,2.115,0,0,0-.82-1.8c-.656-.656-1.639-.82-3.115-.82H7.213v4.918Z" transform="translate(0 0.448)" fill="#fff"/>
    <path id="XMLID_102_" d="M27.656,2.6a14.884,14.884,0,0,1,3.771.492,8.392,8.392,0,0,1,3.443,1.639,10.036,10.036,0,0,1,2.459,2.787,7.986,7.986,0,0,1,.984,4.1,7.986,7.986,0,0,1-.984,4.1A8.16,8.16,0,0,1,34.869,18.5a11.162,11.162,0,0,1-3.443,1.639,14.7,14.7,0,0,1-7.541,0A8.392,8.392,0,0,1,20.443,18.5a8.16,8.16,0,0,1-2.459-2.787A6.992,6.992,0,0,1,17,11.78a7.986,7.986,0,0,1,.984-4.1A8.16,8.16,0,0,1,20.443,4.9a11.162,11.162,0,0,1,3.443-1.639A16.579,16.579,0,0,1,27.656,2.6Zm0,4.262a8.306,8.306,0,0,0-2.131.328,9.792,9.792,0,0,0-1.8.984,4.52,4.52,0,0,0-1.148,1.475,4.365,4.365,0,0,0-.492,1.967,3.5,3.5,0,0,0,.492,1.967,3.57,3.57,0,0,0,1.148,1.475,3.908,3.908,0,0,0,1.8.984,8.306,8.306,0,0,0,2.131.328,8.306,8.306,0,0,0,2.131-.328,3.908,3.908,0,0,0,1.8-.984,4.52,4.52,0,0,0,1.148-1.475,4.365,4.365,0,0,0,.492-1.967,3.5,3.5,0,0,0-.492-1.967A3.57,3.57,0,0,0,31.59,8.174a3.908,3.908,0,0,0-1.8-.984A8.306,8.306,0,0,0,27.656,6.862Z" transform="translate(10.869 1.662)" fill="#fff"/>
    <path id="XMLID_99_" d="M33.848,3.948c0-.328-.164-.492-.328-.492a7.1,7.1,0,0,0-.82-.164V2.8H44.831a8.639,8.639,0,0,1,3.771.656,7.891,7.891,0,0,1,2.623,1.967A9.113,9.113,0,0,1,52.7,8.21a11.65,11.65,0,0,1,.492,3.443A12.48,12.48,0,0,1,52.7,15.1a7.555,7.555,0,0,1-1.475,2.787A6.521,6.521,0,0,1,48.6,19.85a8.639,8.639,0,0,1-3.771.656H32.7v-.492a1.478,1.478,0,0,0,.82-.164c.164,0,.328-.328.328-.492Zm8.2,12.623c2.131,0,3.607-.328,4.426-1.148.984-.656,1.312-1.967,1.312-3.934a5.137,5.137,0,0,0-1.312-3.934,7.944,7.944,0,0,0-4.426-1.148H39.094v10h2.951Z" transform="translate(20.908 1.79)" fill="#fff"/>
    <path id="XMLID_97_" d="M53.482,19.194c0,.328.164.492.328.492a7.1,7.1,0,0,0,.82.164v.492H48.4V19.85a.986.986,0,0,0,.656-.164c.164,0,.328-.328.328-.492V3.948c0-.328-.164-.492-.328-.492s-.328-.164-.656-.164V2.8h8.689v.492H56.6a.161.161,0,0,0-.164.164A4.265,4.265,0,0,0,56.925,4.6c.328.656.656,1.475.984,2.131.328.82.82,1.639,1.148,2.3a9.118,9.118,0,0,0,.656,1.312c.328-.656.656-1.312,1.148-2.131s.82-1.475,1.148-2.131a17.883,17.883,0,0,1,.984-1.8,6.448,6.448,0,0,0,.328-.984c0-.164,0-.164-.164-.164h-.492V2.8h8.689v.492a.6.6,0,0,0-.492.164c-.164,0-.328.328-.328.492V19.194c0,.328.164.492.328.492s.328.164.492.164v.492H64.63V19.85a1.478,1.478,0,0,0,.82-.164c.164,0,.328-.328.328-.492V7.718h0l-6.394,11.8L53.646,7.882h0V19.194Z" transform="translate(30.946 1.79)" fill="#fff"/>
    <path id="XMLID_95_" d="M83.769,17.218q.738,0,.984-.984h.492v5.246h-.328c-.164-.328-.328-.656-.492-.656H65.9v-.492a1.478,1.478,0,0,0,.82-.164c.164,0,.328-.328.328-.492V4.267c0-.328-.164-.492-.328-.492a7.1,7.1,0,0,0-.82-.164V3.12H84.1a.6.6,0,0,0,.492-.164c.164-.164.164-.328.164-.656h.492V7.71h-.492a1.228,1.228,0,0,0-.164-.82c-.164-.164-.328-.328-.492-.328h-11.8V9.841h7.541a.6.6,0,0,0,.492-.164c.164-.164.164-.328.164-.82h.492V14.1H80.49a1.229,1.229,0,0,0-.164-.82H72.458v3.934Z" transform="translate(42.135 1.471)" fill="#fff"/>
    <path id="XMLID_92_" d="M82.284,3.948c0-.328-.164-.492-.328-.492s-.328-.164-.656-.164V2.8H94.251a7.171,7.171,0,0,1,4.754,1.475,5.09,5.09,0,0,1,1.8,4.1A4.7,4.7,0,0,1,99.5,11.817a10.083,10.083,0,0,1-3.115,1.967l3.607,5.41a2.263,2.263,0,0,0,.656.492,1.478,1.478,0,0,0,.82.164v.492H93.431v-.492a1.239,1.239,0,0,0,.656-.164c.164,0,.328-.164.328-.492a2.534,2.534,0,0,0-.492-.984,17.882,17.882,0,0,1-.984-1.8c-.328-.656-.656-1.148-.984-1.8-.328-.492-.492-.984-.656-1.148H87.366v5.41c0,.328.164.492.328.492a7.1,7.1,0,0,0,.82.164v.492H81.628v-.492a.6.6,0,0,0,.492-.164c.164,0,.328-.328.328-.492V3.948ZM93.1,10.505a3.5,3.5,0,0,0,1.967-.492,2.018,2.018,0,0,0,.82-1.639A1.6,1.6,0,0,0,95.235,6.9a3.4,3.4,0,0,0-2.459-.656h-5.41v4.262Z" transform="translate(51.981 1.79)" fill="#fff"/>
    <path id="XMLID_90_" d="M118.112,7.049a7.1,7.1,0,0,0-.164-.82.6.6,0,0,0-.492-.164H104.177V9.672h8.853a.6.6,0,0,0,.492-.164c.164-.164.164-.328.164-.82h.492V15.41h-.492a1.989,1.989,0,0,0-.164-.82.6.6,0,0,0-.492-.164h-8.853v6.721a.6.6,0,0,0,.164.492c.164.164.492.164.984.328v.492H96.964v-.492a1.386,1.386,0,0,0,.984-.328.6.6,0,0,0,.164-.492V2.3a.6.6,0,0,0-.164-.492c-.328,0-.656-.164-1.148-.164V1.148h20.492a.6.6,0,0,0,.492-.164c.164-.164.164-.492.164-.984h.492V7.049Z" transform="translate(61.891 0)" fill="#fff"/>
    <path id="XMLID_88_" d="M121.033,3.292a2.079,2.079,0,0,0-.984.164c-.164,0-.328.328-.328.492V19.194c0,.328.164.492.328.492a5.8,5.8,0,0,0,.984.164v.492H113V19.85a2.079,2.079,0,0,0,.984-.164c.164,0,.328-.328.328-.492V3.948c0-.328-.164-.492-.328-.492A5.8,5.8,0,0,0,113,3.292V2.8h8.033Z" transform="translate(72.249 1.79)" fill="#fff"/>
    <path id="XMLID_86_" d="M123.123,14.6V15.1c0,.328.328.492.82.82a5.531,5.531,0,0,0,1.967.656c.82.164,1.639.328,2.623.492a15,15,0,0,0,2.623.164h.984c.492,0,.82-.164,1.148-.164a5.459,5.459,0,0,0,.984-.492.991.991,0,0,0,.492-.984,1.2,1.2,0,0,0-.984-1.148q-.984-.246-2.459-.492a18.158,18.158,0,0,0-3.115-.328,17.413,17.413,0,0,1-3.115-.656,6.173,6.173,0,0,1-2.459-1.475,3.461,3.461,0,0,1-.984-2.623,4.365,4.365,0,0,1,.492-1.967,7.706,7.706,0,0,1,1.475-1.967A6.446,6.446,0,0,1,126.4,3.456a14.292,14.292,0,0,1,4.1-.656,15.905,15.905,0,0,1,2.787.164c.82.164,1.639.164,2.3.328a8.459,8.459,0,0,0,1.8.328,2.884,2.884,0,0,0,.984.164.6.6,0,0,0,.492-.164c.164-.164.328-.164.328-.328l.492.164-2.459,5.082-.492-.492V7.718c0-.164-.164-.164-.492-.328a11.294,11.294,0,0,0-1.312-.492c-.492-.164-1.148-.328-1.8-.492a7.982,7.982,0,0,0-1.967-.164h-1.148a4.539,4.539,0,0,0-1.475.164,11.3,11.3,0,0,0-1.312.492,1.107,1.107,0,0,0-.656.984q0,.738.984.984t2.459.492a18.158,18.158,0,0,0,3.115.328,9.7,9.7,0,0,1,3.115.82A6.173,6.173,0,0,1,138.7,11.98a3.856,3.856,0,0,1,.984,2.787,5.786,5.786,0,0,1-.492,2.3,4.247,4.247,0,0,1-1.639,1.8,6.225,6.225,0,0,1-2.787,1.148,14.346,14.346,0,0,1-3.935.492,17.818,17.818,0,0,1-2.951-.164c-.984-.164-1.967-.328-2.787-.492s-1.475-.328-2.131-.492a2.884,2.884,0,0,0-.984-.164.6.6,0,0,0-.492.164c-.164.164-.328.328-.492.328l-.492-.164,1.639-5.41Z" transform="translate(77.045 1.79)" fill="#fff"/>
    <path id="XMLID_84_" d="M152.113,9.649l-.492-.328c0-.164,0-.164.164-.328s0-.164,0-.328-.164-.328-.492-.492a9.666,9.666,0,0,1-1.312-.656c-.492-.164-1.148-.328-1.8-.492a7.981,7.981,0,0,0-1.967-.164,11.07,11.07,0,0,0-2.3.328,8.235,8.235,0,0,0-2.131.82,3.217,3.217,0,0,0-1.475,1.475,4.65,4.65,0,0,0-.656,2.131,3.023,3.023,0,0,0,.656,2.131,12.518,12.518,0,0,0,1.475,1.475,8.235,8.235,0,0,0,2.131.82,11.07,11.07,0,0,0,2.3.328,9.675,9.675,0,0,0,2.3-.328c.656-.164,1.311-.492,1.967-.656a2.587,2.587,0,0,0,1.312-.82c.328-.328.492-.492.492-.656V13.42l.492-.328,3.771,5.41-.492.328a.878.878,0,0,0-.656-.492c-.164,0-.328.164-.82.328a15.975,15.975,0,0,0-1.8.82c-.82.328-1.639.492-2.787.82a22.314,22.314,0,0,1-3.443.328,17.869,17.869,0,0,1-4.262-.492,15.037,15.037,0,0,1-3.771-1.475,7.153,7.153,0,0,1-2.623-2.787,8.624,8.624,0,0,1-.984-4.262,7.986,7.986,0,0,1,.984-4.1,7.153,7.153,0,0,1,2.623-2.787,13.129,13.129,0,0,1,3.771-1.639A18.9,18.9,0,0,1,146.54,2.6a14.1,14.1,0,0,1,2.623.164c.82.164,1.639.328,2.3.492s1.311.328,1.8.492a3.2,3.2,0,0,0,1.148.164c.164,0,.328,0,.328-.164a.161.161,0,0,0,.164-.164l.492.164Z" transform="translate(86.252 1.662)" fill="#fff"/>
    <path id="XMLID_82_" d="M156.957,19.194c0,.328.164.492.328.492a7.1,7.1,0,0,0,.82.164v.492H150.4V19.85a1.228,1.228,0,0,0,.82-.164c.164,0,.328-.328.328-.492V3.948c0-.328-.164-.492-.328-.492a7.1,7.1,0,0,0-.82-.164V2.8h7.705v.492a1.228,1.228,0,0,0-.82.164c-.164,0-.328.328-.328.492V9.03h8.853V3.948c0-.328-.164-.492-.328-.492a7.1,7.1,0,0,0-.82-.164V2.8h7.705v.492a1.228,1.228,0,0,0-.82.164c-.164,0-.328.328-.328.492V19.194c0,.328.164.492.328.492a7.1,7.1,0,0,0,.82.164v.492h-7.705V19.85a1.229,1.229,0,0,0,.82-.164c.164,0,.328-.328.328-.492V13.128h-8.853Z" transform="translate(96.162 1.79)" fill="#fff"/>
    <path id="XMLID_80_" d="M184.869,17.218q.738,0,.984-.984h.492v5.246h-.328c-.164-.328-.328-.656-.492-.656H167v-.492a1.478,1.478,0,0,0,.82-.164c.164,0,.328-.328.328-.492V4.267c0-.328-.164-.492-.328-.492a7.1,7.1,0,0,0-.82-.164V3.12h18.2a.6.6,0,0,0,.492-.164c.164-.164.164-.328.164-.656h.492V7.71h-.492a1.228,1.228,0,0,0-.164-.82.6.6,0,0,0-.492-.164h-11.64v3.279H181.1a.6.6,0,0,0,.492-.164c.164-.164.164-.328.164-.82h.492v5.246h-.492a1.228,1.228,0,0,0-.164-.82.6.6,0,0,0-.492-.164h-7.541v3.934Z" transform="translate(106.776 1.471)" fill="#fff"/>
    <path id="XMLID_77_" d="M183.384,3.948c0-.328-.164-.492-.328-.492s-.328-.164-.656-.164V2.8h12.951a7.171,7.171,0,0,1,4.754,1.475,5.09,5.09,0,0,1,1.8,4.1,4.7,4.7,0,0,1-1.312,3.443,10.082,10.082,0,0,1-3.115,1.967l3.607,5.41a2.263,2.263,0,0,0,.656.492,1.478,1.478,0,0,0,.82.164v.492h-8.033v-.492a1.239,1.239,0,0,0,.656-.164c.164,0,.328-.164.328-.492a2.535,2.535,0,0,0-.492-.984,17.888,17.888,0,0,1-.984-1.8c-.328-.656-.656-1.148-.984-1.8-.328-.492-.492-.984-.656-1.148h-3.934v5.41c0,.328.164.492.328.492a7.1,7.1,0,0,0,.82.164v.492h-6.885v-.492a.6.6,0,0,0,.492-.164c.164,0,.328-.328.328-.492V3.948Zm10.82,6.557a3.5,3.5,0,0,0,1.967-.492,2.018,2.018,0,0,0,.82-1.639,1.6,1.6,0,0,0-.656-1.475c-.492-.492-1.148-.656-2.459-.656h-5.41v4.262Z" transform="translate(116.622 1.79)" fill="#fff"/>
  </g>
  <g id="XMLID_42_" transform="translate(87.379 36.558)">
    <path id="XMLID_143_" d="M53.464,22.9h3.115c2.459,0,4.918.328,4.918,3.443a2.844,2.844,0,0,1-2.623,2.787h0c.492.164.82.492,1.148,1.312l2.459,5.082H60.349L58.382,31.1c-.492-1.148-1.148-1.148-2.131-1.148H55.1v5.574H53.3V22.9Zm1.8,5.41h1.475c1.639,0,2.787-.82,2.787-1.967s-.82-1.8-2.459-1.8h-1.8Z" transform="translate(-53.3 -21.916)" fill="#fff"/>
    <path id="XMLID_146_" d="M68.405,33.753a7.805,7.805,0,0,1-2.951.656c-3.279,0-4.754-1.967-4.754-4.918,0-2.787,1.639-4.59,4.262-4.59,3.115,0,4.1,2.3,4.1,5.246H62.5a3.083,3.083,0,0,0,2.951,3.115,4.976,4.976,0,0,0,2.787-.984v1.475Zm-.984-5.082a2.334,2.334,0,0,0-2.3-2.623c-1.639,0-2.3,1.311-2.459,2.623Z" transform="translate(-48.569 -20.638)" fill="#fff"/>
    <path id="XMLID_149_" d="M74.458,26.539a3.843,3.843,0,0,0-1.8-.328c-1.967,0-2.951,1.639-2.951,3.443,0,1.639.82,3.443,3.115,3.443a3.3,3.3,0,0,0,1.8-.492l.164,1.475a4.842,4.842,0,0,1-2.131.328A4.656,4.656,0,0,1,67.9,29.654,4.474,4.474,0,0,1,72.654,24.9a8.306,8.306,0,0,1,2.131.328Z" transform="translate(-43.965 -20.638)" fill="#fff"/>
    <path id="XMLID_151_" d="M74.3,22.3h1.639v5.574h0A3.31,3.31,0,0,1,78.89,26.4c2.459,0,3.443,1.475,3.443,3.935v5.41H80.694V30.989c0-2.131-.492-3.115-1.967-3.279-1.967,0-2.787,1.475-2.787,3.771v4.262H74.3V22.3Z" transform="translate(-39.873 -22.3)" fill="#fff"/>
    <path id="XMLID_153_" d="M87.53,27.334H85.071v5.082a1.514,1.514,0,0,0,1.475,1.639,2.369,2.369,0,0,0,1.148-.328V35.2a3.273,3.273,0,0,1-1.475.328c-1.8,0-2.787-.82-2.787-2.623V27.5H81.3V26.023h2.131V23.892l1.639-.492v2.623H87.53Z" transform="translate(-35.398 -21.597)" fill="#fff"/>
    <path id="XMLID_155_" d="M87.1,32.441a3.969,3.969,0,0,0,2.131.656c.82,0,1.8-.328,1.8-1.311,0-1.639-3.934-1.475-3.934-4.1,0-1.967,1.475-2.787,3.279-2.787a8.306,8.306,0,0,1,2.131.328L92.346,26.7a5.811,5.811,0,0,0-1.8-.492c-.82,0-1.639.328-1.639,1.148,0,1.8,3.935,1.311,3.935,4.262,0,1.967-1.639,2.787-3.279,2.787a5.989,5.989,0,0,1-2.459-.492Z" transform="translate(-31.689 -20.638)" fill="#fff"/>
    <path id="XMLID_157_" d="M93.648,25.62A5.661,5.661,0,0,1,96.6,24.8c2.623,0,3.771,1.312,3.771,3.771v5.574H98.73V33h0a3.487,3.487,0,0,1-2.787,1.475c-1.967,0-3.443-.82-3.443-2.787,0-2.3,2.459-2.951,4.262-2.951h1.8c0-1.639-.656-2.459-2.3-2.459a3.723,3.723,0,0,0-2.623.984Zm5.082,4.262H97.582c-.984,0-3.115.164-3.115,1.8a1.6,1.6,0,0,0,1.639,1.475A2.371,2.371,0,0,0,98.73,30.7Z" transform="translate(-28.237 -20.702)" fill="#fff"/>
    <path id="XMLID_160_" d="M100.1,25.064h1.639v1.475h0A3.443,3.443,0,0,1,104.69,24.9c2.459,0,3.443,1.475,3.443,3.934v5.41h-1.639V29.49c0-2.131-.492-3.115-1.967-3.279-1.967,0-2.787,1.475-2.787,3.771v4.262H100.1Z" transform="translate(-23.377 -20.638)" fill="#fff"/>
    <path id="XMLID_162_" d="M118.84,34.181h-1.967l-2.459-7.705h0l-2.3,7.705h-1.967L107.2,25H109l2.131,7.541h0L113.43,25H115.4l2.3,7.541h0l2.3-7.541h1.639Z" transform="translate(-18.838 -20.574)" fill="#fff"/>
    <path id="XMLID_164_" d="M118.948,26.771a5.661,5.661,0,0,1,2.951-.82c2.623,0,3.771,1.312,3.771,3.771V35.3H124.03V34.148h0a3.488,3.488,0,0,1-2.787,1.475c-1.967,0-3.443-.82-3.443-2.787,0-2.3,2.459-2.951,4.262-2.951h1.8c0-1.639-.656-2.459-2.3-2.459a3.723,3.723,0,0,0-2.623.984Zm5.082,4.262h-1.148c-.984,0-3.115.164-3.115,1.8a1.6,1.6,0,0,0,1.639,1.475,2.371,2.371,0,0,0,2.623-2.459ZM119.767,23h1.639v1.8h-1.639Zm2.951,0h1.639v1.8h-1.639Z" transform="translate(-12.06 -21.852)" fill="#fff"/>
    <path id="XMLID_169_" d="M125.6,22.3h1.639V35.907H125.6Z" transform="translate(-7.073 -22.3)" fill="#fff"/>
    <path id="XMLID_171_" d="M135.03,27.334h-2.459v5.082a1.514,1.514,0,0,0,1.475,1.639,2.369,2.369,0,0,0,1.148-.328V35.2a3.274,3.274,0,0,1-1.475.328c-1.8,0-2.787-.82-2.787-2.623V27.5H128.8V26.023h2.131V23.892l1.639-.492v2.623h2.459Z" transform="translate(-5.027 -21.597)" fill="#fff"/>
    <path id="XMLID_173_" d="M142.305,33.753a7.805,7.805,0,0,1-2.951.656c-3.279,0-4.754-1.967-4.754-4.918,0-2.787,1.639-4.59,4.262-4.59,3.115,0,4.1,2.3,4.1,5.246H136.4a3.083,3.083,0,0,0,2.951,3.115,4.976,4.976,0,0,0,2.787-.984v1.475Zm-1.148-5.082a2.334,2.334,0,0,0-2.3-2.623c-1.639,0-2.3,1.311-2.459,2.623Z" transform="translate(-1.319 -20.638)" fill="#fff"/>
  </g>
</svg>
