<svg xmlns="http://www.w3.org/2000/svg" xmlns:xlink="http://www.w3.org/1999/xlink" width="78.95" height="78.998" viewBox="0 0 78.95 78.998">
  <defs>
    <clipPath id="clip-path">
      <rect id="Rectangle_73" data-name="Rectangle 73" width="78.95" height="78.998" fill="none"/>
    </clipPath>
  </defs>
  <g id="Group_219" data-name="Group 219" clip-path="url(#clip-path)">
    <path id="Path_1768" data-name="Path 1768" d="M21.437,6a1.209,1.209,0,0,1-.54-.128,36.82,36.82,0,0,0-7.238-2.755A1.2,1.2,0,0,1,14.271.808,39.435,39.435,0,0,1,21.98,3.742,1.2,1.2,0,0,1,21.437,6" transform="translate(35.3 0.497)" fill="#2b4eaf"/>
    <path id="Path_1769" data-name="Path 1769" d="M12.108,13.158a1.2,1.2,0,0,1-.927-.441A37.415,37.415,0,0,0,5.68,7.26a1.2,1.2,0,0,1,1.5-1.865,39.951,39.951,0,0,1,5.854,5.81,1.2,1.2,0,0,1-.928,1.954" transform="translate(57.03 3.313)" fill="#2b4eaf"/>
    <path id="Path_1770" data-name="Path 1770" d="M48.086,25.326a37.25,37.25,0,0,0,1.249,7.646,1.2,1.2,0,0,1-.839,1.47,1.146,1.146,0,0,1-.314.041,1.2,1.2,0,0,1-1.154-.88,39.682,39.682,0,0,1-1.333-8.168l.123-.32L46.1,24.8l.451-.226.754.113Z" transform="translate(-45.629 16.307)" fill="#2b4eaf"/>
    <path id="Path_1771" data-name="Path 1771" d="M5.214,22.431a1.289,1.289,0,0,1-.313.038,1.2,1.2,0,0,1-1.155-.884,36.8,36.8,0,0,0-2.8-7.222A1.2,1.2,0,1,1,3.073,13.27a39.208,39.208,0,0,1,2.982,7.691,1.2,1.2,0,0,1-.841,1.47" transform="translate(71.518 8.15)" fill="#2b4eaf"/>
    <path id="Path_1772" data-name="Path 1772" d="M1.2,32.332a1.142,1.142,0,0,1-.183-.016,1.2,1.2,0,0,1-1-1.363,37.359,37.359,0,0,0,.425-5.615q0-1.057-.059-2.128a1.2,1.2,0,0,1,1.129-1.261,1.237,1.237,0,0,1,1.261,1.129q.062,1.138.063,2.26a39.638,39.638,0,0,1-.454,5.979A1.2,1.2,0,0,1,1.2,32.332" transform="translate(76.119 14.174)" fill="#2b4eaf"/>
    <path id="Path_1773" data-name="Path 1773" d="M47.376,24.082a1.2,1.2,0,0,1-2.365-.364,39.406,39.406,0,0,1,2.115-7.974,1.2,1.2,0,0,1,2.237.851,36.781,36.781,0,0,0-1.986,7.487" transform="translate(-44.546 9.67)" fill="#2b4eaf"/>
    <path id="Path_1774" data-name="Path 1774" d="M41.952,14.93a1.191,1.191,0,0,1-1.007.546,1.194,1.194,0,0,1-1-1.845A40.029,40.029,0,0,1,45.117,7.21a1.2,1.2,0,0,1,1.7,1.687,37.643,37.643,0,0,0-4.862,6.033" transform="translate(-33.631 4.428)" fill="#2b4eaf"/>
    <path id="Path_1775" data-name="Path 1775" d="M31.241,2.434a37.943,37.943,0,0,0-7.743.431A1.2,1.2,0,0,1,23.121.5,40.311,40.311,0,0,1,31.354.046a1.2,1.2,0,1,1-.114,2.388" transform="translate(10.063 0.001)" fill="#2b4eaf"/>
    <path id="Path_1776" data-name="Path 1776" d="M40.4,3.874a37,37,0,0,0-6.892,3.542,1.2,1.2,0,0,1-1.312-2,39.274,39.274,0,0,1,7.343-3.77,1.2,1.2,0,0,1,.861,2.23" transform="translate(-14.324 1.009)" fill="#2b4eaf"/>
    <path id="Path_1777" data-name="Path 1777" d="M19,25.482a6.765,6.765,0,1,1,6.764-6.767A6.772,6.772,0,0,1,19,25.482m0-11.139a4.373,4.373,0,1,0,4.371,4.371A4.376,4.376,0,0,0,19,14.343" transform="translate(33.046 7.719)" fill="#2b4eaf"/>
    <path id="Path_1778" data-name="Path 1778" d="M40.951,15.346A7.271,7.271,0,1,1,33.68,8.075a7.28,7.28,0,0,1,7.271,7.271m-7.271-4.88a4.88,4.88,0,1,0,4.878,4.88,4.884,4.884,0,0,0-4.878-4.88" transform="translate(-5.463 5.215)" fill="#2b4eaf"/>
    <path id="Path_1779" data-name="Path 1779" d="M31.3,30.712a1.2,1.2,0,0,1-1.2-1.2v-4.46a1.2,1.2,0,1,1,2.393,0v4.46a1.2,1.2,0,0,1-1.2,1.2" transform="translate(-3.08 15.406)" fill="#2b4eaf"/>
    <path id="Path_1780" data-name="Path 1780" d="M31.3,34.967a1.2,1.2,0,0,1-1.2-1.2V31.379a1.2,1.2,0,0,1,2.393,0V33.77a1.2,1.2,0,0,1-1.2,1.2" transform="translate(-3.08 19.492)" fill="#2b4eaf"/>
    <path id="Path_1781" data-name="Path 1781" d="M1.466,46.766a3.106,3.106,0,0,1,2.716-.584,4.963,4.963,0,0,1,1.012-2.822,4.528,4.528,0,0,1,3.624-1.636h.071a9.437,9.437,0,0,1,2.37.418V26.918a8.141,8.141,0,0,1,8.132-8.132H37.044A8.137,8.137,0,0,1,44.5,23.7H60.138a7.562,7.562,0,0,1,7.554,7.554v8.56a3.341,3.341,0,0,1,1.585-.408h6.293a3.384,3.384,0,0,1,3.379,3.379V60.8a3.383,3.383,0,0,1-3.379,3.38H69.277a3.377,3.377,0,0,1-2.822-1.529A5.733,5.733,0,0,1,64,64.008a87.234,87.234,0,0,1-21.849,2.857C30.043,66.862,15.6,64.1,2.921,54.144,2.634,53.948.126,52.17,0,49.82a3.679,3.679,0,0,1,1.461-3.055M68.29,60.8a.988.988,0,0,0,.987.986h6.293a.988.988,0,0,0,.987-.986V42.781a.989.989,0,0,0-.987-.987H69.277a.989.989,0,0,0-.987.987ZM8.857,44.114H8.814a2.13,2.13,0,0,0-1.754.742,2.859,2.859,0,0,0-.52,2.009c.777.3,1.646.658,2.623,1.07A88.7,88.7,0,0,0,23.2,52.723a4.362,4.362,0,0,1-.222-1.116,7.875,7.875,0,0,1,.306-2.938,73.386,73.386,0,0,1-9.078-2.957,19.216,19.216,0,0,0-5.354-1.6m33.927-17.2a5.746,5.746,0,0,0-5.74-5.74H29.412v1.195a1.2,1.2,0,1,1-2.391,0V21.177H19.39a5.745,5.745,0,0,0-5.739,5.74V42.941c.458.171.922.347,1.419.54.943.36,2,.755,3.125,1.155V28.119a1.2,1.2,0,0,1,2.391,0V45.426c1.249.388,2.564.772,4.014,1.106a5.817,5.817,0,0,1,3.923-1.483c3.117.039,5.472-.025,7.324-.16V28.119a1.2,1.2,0,0,1,2.393,0V44.636a11.819,11.819,0,0,0,4.544-1.46ZM65.3,31.251a5.167,5.167,0,0,0-5.161-5.163h-6.9v2.786a1.2,1.2,0,1,1-2.393,0V26.088H45.093a8.134,8.134,0,0,1,.082.829V41.855c2.136-1,5.576-1.935,13.767-2.324V32.354a1.2,1.2,0,1,1,2.391,0v7.083c.332-.01.642-.025.987-.031a5.521,5.521,0,0,1,2.979.762ZM4.333,52.215c21.582,16.937,48.489,12.272,59.06,9.48A3.365,3.365,0,0,0,65.9,58.419l-.064-13.27a3.376,3.376,0,0,0-3.364-3.356.772.772,0,0,0-.087,0c-13.138.334-15.6,1.8-17.781,3.089-2.436,1.447-4.56,2.712-16.148,2.556a3.278,3.278,0,0,0-2.26.864,3.992,3.992,0,0,0-.826,3.14c.023.351.1,1.4,2.179,2.228.02.007.033.018.051.025l.025,0c2.217.856,7.095,1.568,17.781.135a1.2,1.2,0,1,1,.318,2.37A82.6,82.6,0,0,1,34.9,57.05a23.88,23.88,0,0,1-8.012-1.075h-.008A88.054,88.054,0,0,1,8.238,50.141c-2.431-1.015-4.72-1.977-5.224-1.549-.579.492-.634.861-.62,1.1.046.925,1.284,2.067,1.939,2.523" transform="translate(0.001 12.132)" fill="#2b4eaf"/>
  </g>
</svg>
