<svg xmlns="http://www.w3.org/2000/svg" width="84" height="81.336" viewBox="0 0 84 81.336">
  <g id="Group_14084" data-name="Group 14084" transform="translate(-51.477 -59.846)">
    <text id="Business_Cloud" data-name="Business Cloud" transform="translate(51.477 138.181)" fill="#fff" font-size="13" font-family="SegoeUI, Segoe UI" letter-spacing="-0.015em"><tspan x="0" y="0">Business Cloud</tspan></text>
    <path id="Exclusion_3" data-name="Exclusion 3" d="M64.647,49.122H13.95A14.436,14.436,0,0,1,0,34.614,14.983,14.983,0,0,1,10.176,20.389,11.362,11.362,0,0,1,21.137,9.126a10.816,10.816,0,0,1,4.124.812A23.023,23.023,0,0,1,41.724.136,23.372,23.372,0,0,1,44.232,0a23.03,23.03,0,0,1,22.86,20.544,14.441,14.441,0,0,1,11.5,13.648,14.445,14.445,0,0,1-13.943,14.93Zm-35-23.7h0v9.75A1.626,1.626,0,0,0,31.273,36.8H49.958a1.626,1.626,0,0,0,1.623-1.624v-9.75l-.018.01a41.2,41.2,0,0,1-8.107,3.063v.987a.814.814,0,0,1-.812.812H38.583a.813.813,0,0,1-.812-.812v-.987a41.818,41.818,0,0,1-8.12-3.072Zm9.746,1.625a.812.812,0,0,0-.812.812v.812a.812.812,0,0,0,.812.812h2.437a.813.813,0,0,0,.813-.812v-.812a.813.813,0,0,0-.812-.812Zm-.812-.812h4.061a.814.814,0,0,1,.813.812v.729a40.887,40.887,0,0,0,8.125-3.165V21.36a1.626,1.626,0,0,0-1.623-1.624H45.08V18.111a1.627,1.627,0,0,0-1.624-1.624H37.771a1.627,1.627,0,0,0-1.625,1.624v1.624H31.273a1.626,1.626,0,0,0-1.625,1.624v3.249a41.1,41.1,0,0,0,8.122,3.165v-.729A.813.813,0,0,1,38.583,26.233Zm4.873-6.5H37.771v-.812a.813.813,0,0,1,.813-.812h4.061a.814.814,0,0,1,.813.812v.811Z" transform="translate(52.559 59.846)" fill="#feffff"/>
  </g>
</svg>
