<svg xmlns="http://www.w3.org/2000/svg" width="71" height="89.514" viewBox="0 0 71 89.514">
  <g id="Group_14082" data-name="Group 14082" transform="translate(-38.5 -32.486)">
    <text id="infrastruktur" transform="translate(38.5 119)" fill="#fff" font-size="13" font-family="SegoeUI, Segoe UI"><tspan x="0" y="0">I</tspan><tspan y="0" letter-spacing="-0.008em">n</tspan><tspan y="0">f</tspan><tspan y="0" letter-spacing="-0.006em">r</tspan><tspan y="0">astruktur</tspan></text>
    <path id="Exclusion_4" data-name="Exclusion 4" d="M59.758,71.456H0V67.188H4.269V18.1A2.136,2.136,0,0,1,6.4,15.967H36.282A2.136,2.136,0,0,1,38.416,18.1v14.94h14.94a2.136,2.136,0,0,1,2.134,2.134V67.188h4.269v4.268ZM10.439,55.729v6h22v-6Zm29-4v6h12v-6Zm-29-7v6h22v-6Zm29-3v6h12v-6Zm-29-8v6h22v-6Zm0-11v6h22v-6ZM54.4,27.455H51.9l-.478-2.628c-.314-.049-.627-.111-.928-.184l-1.448,2.245-2.306-.955.565-2.612c-.264-.161-.528-.338-.785-.526l-2.2,1.521-1.766-1.762,1.522-2.2c-.19-.257-.367-.522-.527-.785l-2.612.565-.956-2.306,2.244-1.443c-.074-.307-.136-.62-.184-.928l-2.628-.478v-2.5l2.628-.478c.049-.313.111-.626.184-.929L39.983,9.63l.955-2.306,2.612.565c.163-.266.341-.531.527-.785L42.556,4.9l1.767-1.766L46.516,4.66c.253-.187.518-.364.785-.526l-.562-2.616,2.307-.95,1.446,2.245c.3-.072.609-.134.928-.184L51.9,0h2.5l.478,2.628c.324.05.637.112.928.184L57.246.562l2.306.956-.567,2.614c.273.168.537.346.785.527l2.2-1.521L63.742,4.9,62.214,7.1c.186.253.363.517.526.784l2.611-.564.955,2.306-2.245,1.447c.075.31.137.622.184.928l2.629.478v2.5l-2.622.475c-.049.317-.112.63-.184.929l2.246,1.447-.956,2.306-2.611-.564c-.162.265-.339.529-.526.784l1.521,2.2L61.973,24.32l-2.2-1.521c-.255.187-.52.364-.785.526l.564,2.611-2.306.956L55.8,24.644c-.307.074-.62.136-.928.184L54.4,27.455ZM53.15,8.3a5.426,5.426,0,1,0,5.428,5.428A5.434,5.434,0,0,0,53.15,8.3Z" transform="translate(41.803 32.486)" fill="#fff"/>
  </g>
</svg>
