<svg xmlns="http://www.w3.org/2000/svg" width="116.439" height="172.444" viewBox="0 0 116.439 172.444">
  <g id="Group_14098" data-name="Group 14098" transform="translate(-206.22 -852.491)">
    <text id="Managed_" data-name="Managed " transform="translate(206.22 995.095)" fill="#232f5d" font-size="19" font-family="SegoeUI, Segoe UI"><tspan x="0" y="0" letter-spacing="-0.012em">M</tspan><tspan y="0">ana</tspan><tspan y="0" letter-spacing="-0.008em">g</tspan><tspan y="0">ed </tspan></text>
    <text id="Services" transform="translate(213.383 1019.935)" fill="#232f5d" font-size="19" font-family="SegoeUI, Segoe UI"><tspan x="0" y="0" letter-spacing="-0.001em">S</tspan><tspan y="0">ervi</tspan><tspan y="0" letter-spacing="-0.008em">c</tspan><tspan y="0">es</tspan></text>
    <path id="Path_12088" data-name="Path 12088" d="M530.506,113.972H460.978a4.967,4.967,0,0,1-4.967-4.967V99.073a4.966,4.966,0,0,1,4.967-4.966h69.528a4.965,4.965,0,0,1,4.966,4.966v9.933a4.966,4.966,0,0,1-4.966,4.967m-7.45-13.656a3.725,3.725,0,1,0,3.726,3.726v0a3.723,3.723,0,0,0-3.724-3.724Zm-9.932,0a3.725,3.725,0,1,0,3.726,3.726v0a3.723,3.723,0,0,0-3.724-3.724ZM530.506,138.8H460.978a4.966,4.966,0,0,1-4.967-4.966V123.9a4.967,4.967,0,0,1,4.967-4.967h69.528a4.966,4.966,0,0,1,4.966,4.967v9.933a4.965,4.965,0,0,1-4.966,4.966m-7.45-13.656a3.726,3.726,0,1,0,3.726,3.726v0a3.724,3.724,0,0,0-3.724-3.724Zm-9.932,0a3.726,3.726,0,1,0,3.726,3.726v0a3.724,3.724,0,0,0-3.724-3.724Zm17.382,38.488H460.978a4.966,4.966,0,0,1-4.967-4.967v-9.933a4.966,4.966,0,0,1,4.967-4.966h69.528a4.965,4.965,0,0,1,4.966,4.966v9.933a4.965,4.965,0,0,1-4.966,4.967m-7.45-13.656a3.726,3.726,0,1,0,3.726,3.726,3.727,3.727,0,0,0-3.726-3.726Zm-9.932,0a3.726,3.726,0,1,0,3.726,3.726,3.727,3.727,0,0,0-3.726-3.726Z" transform="translate(-244.329 802.171)" fill="#232f5d"/>
    <path id="Path_12089" data-name="Path 12089" d="M545.963,84.636a18.83,18.83,0,1,0-6.338,6.334L552.4,103.744l6.335-6.339ZM529.91,86.543a11.615,11.615,0,1,1,11.621-11.609A11.615,11.615,0,0,1,529.91,86.543" transform="translate(-236.076 796.459)" fill="#232f5d"/>
  </g>
</svg>
