<svg xmlns="http://www.w3.org/2000/svg" width="30.452" height="29.808" viewBox="0 0 30.452 29.808">
  <path id="Icon_metro-tools" data-name="Icon metro-tools" d="M35.074,10.477a7.582,7.582,0,0,1-10.746,9.511l-2.1,2.29,1.5,1.5.894-.894a1.169,1.169,0,0,1,1.655,0l7.252,7.326a1.169,1.169,0,0,1,0,1.655l-3.31,3.31a1.169,1.169,0,0,1-1.655,0l-7.252-7.326a1.169,1.169,0,0,1,0-1.655l.817-.817L20.7,23.95,10.673,34.906a2.34,2.34,0,0,1-3.31,0l-.827-.827a2.34,2.34,0,0,1,0-3.31L17.96,21.2l-7.588-7.608h-2.4L5.2,9.132,7.435,6.9,12,9.688l.03,2.346L19.7,19.74l2.233-1.87A7.589,7.589,0,0,1,30.926,6.348L26.008,11.2l4.139,4.139,4.927-4.859ZM9.28,31.936a1.171,1.171,0,1,0,0,1.656A1.171,1.171,0,0,0,9.28,31.936Z" transform="translate(-5.202 -5.785)" fill="#fff"/>
</svg>
